<svg width="18" height="18" viewBox="0 0 18 18" fill="none" xmlns="http://www.w3.org/2000/svg">
<path d="M13.6281 16.3121C13.5308 16.1443 13.3157 16.0871 13.1477 16.1845L13.1341 16.1923C12.9662 16.2897 12.9091 16.5049 13.0065 16.6728C13.0717 16.7852 13.1896 16.848 13.3109 16.848C13.3707 16.848 13.4314 16.8326 13.487 16.8004L13.5005 16.7926C13.6684 16.6952 13.7255 16.4801 13.6281 16.3121Z" fill="black"/>
<path d="M16.7939 4.50278C15.5922 2.42135 13.6519 0.932522 11.3304 0.310467C9.00895 -0.311588 6.58415 0.00766629 4.50273 1.20934C2.42134 2.41102 0.932471 4.35136 0.310451 6.67283C-0.311568 8.99431 0.0076506 11.4191 1.20933 13.5005C2.28725 15.3676 4.00049 16.7865 6.03343 17.4959C6.9971 17.8321 8.00309 17.9999 9.00754 17.9999C10.0997 17.9999 11.1898 17.8014 12.2203 17.4054C12.4015 17.3358 12.4919 17.1324 12.4223 16.9511C12.3526 16.7699 12.1492 16.6794 11.968 16.7492C9.22513 17.8034 6.25576 17.3244 4.03729 15.6592L4.35226 14.0151L4.50403 13.9658C5.07753 13.7795 5.39253 13.1613 5.20627 12.5878L5.0949 12.245C5.06913 12.1657 5.06927 12.0819 5.09525 12.0026C5.19295 11.7048 5.15804 11.3789 4.99945 11.1085C4.84086 10.8381 4.5735 10.6485 4.26584 10.5884L3.47237 10.4333L1.94138 9.2693C1.84966 9.19955 1.7296 9.17919 1.61999 9.21477L0.723643 9.50593C0.704623 9.18534 0.704342 8.86486 0.722412 8.54606C0.757779 8.57901 0.780807 8.6014 0.794975 8.61609C0.812518 8.64531 0.834244 8.6721 0.859697 8.6953C0.932893 8.76196 0.999197 8.79219 1.13842 8.79219C1.26635 8.79216 1.45574 8.76667 1.76845 8.72047C2.06503 8.67663 2.36006 8.62724 2.36298 8.62675C2.48121 8.60695 2.58116 8.5282 2.6282 8.41799C2.67524 8.30774 2.66283 8.18114 2.59529 8.08207L2.16424 7.44982L2.78165 7.00833C2.82279 6.9789 2.8571 6.94097 2.88224 6.8971L3.83929 5.22629L4.22506 4.81293C4.61927 4.39042 4.73177 3.77227 4.51162 3.23803C4.38175 2.92293 4.15493 2.66059 3.87122 2.48379C4.17848 2.24223 4.5061 2.0192 4.85429 1.81821C6.1318 1.08063 7.52595 0.723201 8.90545 0.709526L8.2777 1.49699L5.94983 2.31307C5.85529 2.34619 5.77936 2.41812 5.74118 2.51072L5.09107 4.0867C5.04491 4.19868 5.05957 4.32644 5.12992 4.42501L6.07941 5.75504C5.94343 5.87911 5.81107 6.05981 5.65297 6.28418C5.58364 6.38258 5.51818 6.4755 5.47293 6.5276C5.43359 6.57296 5.39422 6.61725 5.3552 6.66113C5.15097 6.89087 4.93983 7.12849 4.78981 7.44588C4.45998 8.14405 4.5266 8.95553 4.96366 9.56366C5.38627 10.1516 6.083 10.4505 6.82663 10.3631C6.94777 10.3489 7.06073 10.3209 7.17003 10.2939C7.47143 10.2193 7.56691 10.2118 7.66359 10.3023C7.71063 10.3464 7.71495 10.3547 7.714 10.5041C7.71334 10.5992 7.7126 10.7174 7.74536 10.8525C7.79785 11.0685 7.93352 11.2178 8.0425 11.3378C8.09668 11.3973 8.15272 11.459 8.16998 11.5004C8.27963 11.7631 8.23189 11.9087 8.12727 12.2275C8.1183 12.2548 8.10916 12.2826 8.09999 12.3112C7.94104 12.8032 8.1626 13.2912 8.35807 13.7218C8.42156 13.8616 8.4815 13.9936 8.52077 14.1102C8.83686 15.0481 9.07381 15.2629 9.26397 15.3494C9.36357 15.3947 9.46665 15.4146 9.57078 15.4145C10.0776 15.4145 10.6064 14.944 10.8493 14.6457C11.0019 14.4584 11.0395 14.2708 11.0669 14.1338C11.0806 14.0657 11.0913 14.0119 11.1119 13.9767C11.1433 13.9229 11.1803 13.8812 11.2272 13.8284C11.3214 13.7223 11.4387 13.5902 11.5147 13.3509C11.5724 13.169 11.6144 13.1245 11.7533 12.9765C11.7775 12.9508 11.8032 12.9233 11.8309 12.8932C12.2992 12.3837 12.1786 11.9945 12.0508 11.5824C11.9434 11.2357 12.1314 11.0139 12.5859 10.5906C12.7829 10.4072 12.9866 10.2175 13.144 9.98951C13.2129 9.88974 13.4226 9.58623 13.2928 9.2854C13.1657 8.99044 12.8425 8.94087 12.5828 8.90107C12.4803 8.88532 12.3253 8.86156 12.276 8.82932C12.0585 8.68711 11.9254 8.39032 11.7967 8.10327C11.7711 8.04614 11.7458 7.98975 11.7202 7.93501C11.6745 7.83735 11.6288 7.71919 11.5805 7.5941C11.4526 7.26307 11.3076 6.88785 11.0608 6.62629C10.839 6.39127 10.4209 6.27806 10.052 6.17815C9.92797 6.14458 9.81086 6.11286 9.73363 6.08435C9.6689 6.06045 9.59866 6.05612 9.53165 6.07187C9.35211 6.11396 9.2401 6.16033 9.15692 6.22698C9.13495 6.2446 9.06988 6.30243 9.03177 6.39538C8.90306 6.33361 8.72608 6.21566 8.61717 6.14306C8.61492 6.14155 8.61263 6.14004 8.61038 6.13853C8.64709 5.99165 8.61386 5.87377 8.57906 5.80015C8.38268 5.38474 7.73077 5.41726 7.60217 5.4282C7.52912 5.43431 7.43669 5.43758 7.33892 5.44103C7.18536 5.44648 7.01563 5.4526 6.84768 5.47144L6.85633 5.44732C6.98381 5.09214 7.323 4.8535 7.70036 4.8535H7.90023C8.09433 4.8535 8.25175 4.69607 8.25175 4.50197C8.25175 4.30787 8.09433 4.15044 7.90023 4.15044H7.70036C7.14011 4.15044 6.62708 4.4453 6.33954 4.9094L5.81518 4.17488L6.33106 2.9244L8.60578 2.12692C8.66815 2.10505 8.72313 2.06603 8.76437 2.01431L9.77557 0.745912C12.3593 0.99169 14.7914 2.44034 16.1851 4.85424C16.5563 5.49721 16.8309 6.17411 17.0135 6.86644L16.8645 6.99933C16.67 7.1729 16.556 7.42184 16.5516 7.68238C16.5516 7.68523 16.5515 7.68804 16.5514 7.69085L16.3086 7.02317C16.2724 6.92353 16.2191 6.83216 16.1503 6.75162L15.7172 6.24456C15.5493 6.048 15.3048 5.93533 15.0464 5.93533H14.5163C14.3281 5.93533 14.1561 6.0384 14.0673 6.20424C13.9786 6.3701 13.9883 6.57042 14.0926 6.72694L14.1463 6.80748C13.8037 7.10206 13.4075 7.33778 12.9856 7.49676L12.259 6.10481V5.79428C12.259 5.69823 12.2197 5.6063 12.1502 5.54003L11.4958 4.91534C11.4597 4.88088 11.4167 4.85452 11.3696 4.83796L10.7805 4.63096C10.5973 4.56648 10.3967 4.66292 10.3323 4.84604C10.268 5.02924 10.3643 5.22988 10.5474 5.29425L11.0651 5.47619L11.5559 5.94471V6.19109C11.5559 6.24772 11.5696 6.30355 11.5959 6.35379L12.5056 8.09638C12.5874 8.25318 12.7731 8.32483 12.9388 8.26351L13.2037 8.16585C13.8191 7.93888 14.3895 7.57378 14.8533 7.11007C14.9718 6.99156 14.9902 6.80597 14.8972 6.66651L14.8785 6.63842H15.0464C15.0989 6.63842 15.1486 6.6613 15.1827 6.70124L15.6158 7.2083C15.6297 7.22465 15.6405 7.24314 15.6479 7.26342L16.1258 8.57767C16.1669 8.69059 16.2628 8.77468 16.38 8.8007C16.4053 8.80629 16.4308 8.80903 16.4562 8.80903C16.5484 8.80903 16.6381 8.77272 16.7047 8.70606L16.9322 8.47856C17.0763 8.33446 17.1755 8.15214 17.2229 7.95002C17.5747 10.7697 16.4691 13.6866 14.1321 15.5208C13.9793 15.6407 13.9527 15.8616 14.0726 16.0144C14.1925 16.1671 14.4134 16.1938 14.5662 16.0739C16.2534 14.7496 17.4125 12.8556 17.83 10.7406C18.2514 8.60527 17.8834 6.3899 16.7939 4.50278ZM1.66224 9.94029L3.11184 11.0425C3.1547 11.0751 3.20441 11.0974 3.25721 11.1077L4.13092 11.2784C4.24243 11.3002 4.33545 11.3661 4.39293 11.4641C4.45042 11.5621 4.46251 11.6755 4.42714 11.7835C4.35437 12.0054 4.35402 12.2401 4.42619 12.4622L4.53757 12.8049C4.60412 13.0097 4.49155 13.2306 4.28676 13.2971L3.93742 13.4106C3.81553 13.4502 3.7249 13.553 3.70081 13.6788L3.41963 15.1465C2.80148 14.5808 2.25874 13.9121 1.8182 13.149C1.28073 12.2182 0.944916 11.2254 0.796908 10.2214L1.66224 9.94029ZM3.71104 4.33326L3.2975 4.77633C3.27904 4.79612 3.26291 4.81799 3.24944 4.84147L2.31035 6.48102L1.47571 7.07783C1.32024 7.189 1.28206 7.40391 1.38971 7.56183L1.70187 8.0197C1.52194 8.04649 1.36046 8.06857 1.2531 8.08028C1.23246 8.06049 1.21087 8.04041 1.18855 8.01967C1.10498 7.94204 0.988861 7.83837 0.815752 7.68688C1.10126 5.91982 1.95274 4.2551 3.29191 2.98438C3.54834 3.06513 3.75879 3.25642 3.86158 3.50592C3.97725 3.78654 3.91811 4.11131 3.71104 4.33326ZM6.57733 6.2543C6.73413 6.16606 7.09807 6.15315 7.36378 6.14373C7.47027 6.13997 7.57088 6.13638 7.66074 6.12886C7.70817 6.12489 7.76083 6.12563 7.81051 6.12949C7.78832 6.18645 7.78112 6.24895 7.79075 6.31097C7.80766 6.42006 7.87491 6.51481 7.97223 6.56687C8.03818 6.60217 8.12997 6.66338 8.22715 6.72817C8.50189 6.91133 8.81334 7.11893 9.10591 7.13756C9.37197 7.15483 9.52002 7.0032 9.58344 6.93861C9.5885 6.93348 9.59328 6.92835 9.59834 6.92367C9.63406 6.89456 9.66753 6.85554 9.69242 6.80847C9.74864 6.82453 9.8077 6.84053 9.86824 6.85695C10.0764 6.9133 10.4639 7.01821 10.5495 7.10891C10.7015 7.2701 10.82 7.57691 10.9246 7.84758C10.9775 7.98437 11.0274 8.11347 11.0834 8.23317C11.1074 8.28454 11.1311 8.33745 11.1551 8.39102C11.3173 8.75285 11.5012 9.16299 11.8913 9.41794C12.0681 9.53357 12.285 9.56679 12.4763 9.59615C12.4994 9.5997 12.5259 9.60377 12.5528 9.6082C12.4393 9.76662 12.2776 9.91716 12.1068 10.0762C11.6716 10.4815 11.13 10.9859 11.3794 11.7906C11.4971 12.1706 11.5026 12.2117 11.3133 12.4176C11.2875 12.4457 11.2634 12.4713 11.2409 12.4953C11.0788 12.6679 10.9507 12.8042 10.8447 13.1382C10.8139 13.2352 10.774 13.2801 10.7015 13.3617C10.6436 13.4269 10.5714 13.5082 10.5048 13.6221C10.4251 13.7586 10.3987 13.89 10.3776 13.9956C10.3568 14.0995 10.345 14.1516 10.3042 14.2017C10.2113 14.3157 10.0381 14.4812 9.86036 14.5941C9.69513 14.699 9.59866 14.7134 9.56579 14.7114C9.52828 14.6712 9.3924 14.4951 9.18709 13.8857C9.13646 13.7354 9.06622 13.5807 8.9983 13.4311C8.84857 13.1014 8.69377 12.7603 8.76908 12.5273C8.77797 12.4998 8.78676 12.4729 8.79541 12.4467C8.91572 12.08 9.02927 11.7338 8.81889 11.2296C8.75484 11.0761 8.65285 10.9639 8.56296 10.8649C8.50477 10.8009 8.43886 10.7283 8.4287 10.6866C8.41632 10.6356 8.41671 10.5768 8.41716 10.5087C8.41836 10.325 8.42019 10.0474 8.14425 9.78905C7.75521 9.4249 7.30155 9.53708 7.00132 9.61133C6.9091 9.63411 6.82199 9.6557 6.74478 9.66477C6.25091 9.72264 5.80998 9.53631 5.5347 9.15325C5.24674 8.75257 5.20494 8.21338 5.42565 7.74615C5.53249 7.52006 5.69389 7.33841 5.88078 7.12818C5.9216 7.08223 5.9628 7.03589 6.004 6.98843C6.07256 6.9094 6.148 6.80238 6.22777 6.68908C6.32301 6.5539 6.50034 6.30218 6.57733 6.2543Z" fill="black"/>
<path d="M14.4144 12.1025L14.2453 11.465C14.2084 11.3258 14.0902 11.2232 13.9473 11.2061C13.8041 11.1893 13.6653 11.2609 13.5965 11.3875C13.558 11.4585 13.5233 11.5338 13.4898 11.6065C13.4333 11.7289 13.375 11.8555 13.3143 11.9253C13.2802 11.9645 13.1926 12.0068 13.1079 12.0477C12.9055 12.1454 12.6283 12.2791 12.5224 12.6167C12.4567 12.8261 12.4812 12.9917 12.4991 13.1127C12.5146 13.2176 12.5182 13.2539 12.4901 13.3199L12.4866 13.328C12.3747 13.5906 12.1665 14.0795 12.4585 14.4951C12.6668 14.7916 12.8858 14.8679 13.056 14.8679C13.0892 14.868 13.1206 14.8651 13.1497 14.8603C13.5083 14.8017 13.7779 14.4287 13.9982 13.6864L14.4117 12.2927C14.4301 12.2307 14.431 12.1649 14.4144 12.1025ZM13.3242 13.4864C13.2119 13.8649 13.1125 14.0415 13.0552 14.1199C13.0486 14.1114 13.0414 14.1019 13.0338 14.0909C12.9666 13.9952 13.067 13.7596 13.1334 13.6036L13.137 13.5953C13.2441 13.3438 13.2155 13.1507 13.1946 13.0096C13.1812 12.9193 13.1765 12.8805 13.1932 12.8272C13.207 12.7833 13.2894 12.7408 13.4135 12.6809C13.4685 12.6543 13.5291 12.6251 13.5902 12.5897L13.3242 13.4864Z" fill="black"/>
<path d="M9.49268 4.17763L9.46895 4.16933C9.28589 4.10521 9.08515 4.2015 9.02089 4.3847C8.95662 4.56793 9.05306 4.7685 9.23625 4.83277L9.25995 4.84107C9.29844 4.85457 9.33768 4.86096 9.37631 4.86096C9.52144 4.86096 9.65728 4.77037 9.70805 4.6257C9.77231 4.44246 9.67588 4.24186 9.49268 4.17763Z" fill="black"/>
</svg>
