<svg width="18" height="18" viewBox="0 0 18 18" fill="none" xmlns="http://www.w3.org/2000/svg">
<path d="M18 16.5762L12.686 11.2621C13.5681 10.085 14.0974 8.62927 14.0974 7.04869C14.0974 3.16184 10.9355 0 7.04869 0C3.16184 0 0 3.16184 0 7.04869C0 10.9355 3.16184 14.0974 7.04869 14.0974C8.62927 14.0974 10.085 13.5681 11.2621 12.686L16.5762 18L18 16.5762ZM0.671304 7.04869C0.671304 3.53206 3.53206 0.671304 7.04869 0.671304C10.5653 0.671304 13.4261 3.53206 13.4261 7.04869C13.4261 10.5653 10.5653 13.4261 7.04869 13.4261C3.53206 13.4261 0.671304 10.5653 0.671304 7.04869ZM11.9381 12.1147C11.9979 12.0569 12.0566 11.9982 12.1143 11.9385C12.1634 11.8878 12.2164 11.8411 12.2637 11.7891L17.0508 16.5762L16.5758 17.0511L11.7891 12.2637C11.8411 12.2164 11.8874 12.1634 11.9381 12.1147Z" fill="#8E8E8E"/>
</svg>
