<svg width="17" height="17" viewBox="0 0 17 17" fill="none" xmlns="http://www.w3.org/2000/svg">
<path d="M16.4688 8.5C16.4688 4.10618 12.8938 0.53125 8.5 0.53125C4.10618 0.53125 0.53125 4.10618 0.53125 8.5C0.53125 10.8208 1.52923 12.9127 3.11776 14.3702L3.11023 14.3769L3.3687 14.5948C3.38551 14.609 3.40377 14.6206 3.42057 14.6345C3.55793 14.7484 3.7002 14.8565 3.84509 14.9611C3.89203 14.995 3.93898 15.0289 3.98679 15.0619C4.14153 15.1685 4.30032 15.2697 4.4626 15.3656C4.49795 15.3864 4.53359 15.4067 4.56923 15.427C4.74686 15.5281 4.92826 15.6235 5.11401 15.711C5.12762 15.7174 5.14153 15.7232 5.15515 15.7295C5.76049 16.0109 6.40668 16.2175 7.08243 16.3395C7.10011 16.3427 7.11778 16.3459 7.13575 16.3491C7.34555 16.3853 7.55766 16.4143 7.77238 16.4337C7.79846 16.436 7.82454 16.4375 7.85091 16.4398C8.06476 16.4574 8.28093 16.4688 8.5 16.4688C8.71704 16.4688 8.93118 16.4574 9.14388 16.4404C9.17082 16.438 9.19777 16.4366 9.22472 16.4343C9.4377 16.4149 9.64808 16.3867 9.85585 16.3511C9.87381 16.3479 9.89207 16.3447 9.91003 16.3413C10.5756 16.2219 11.2126 16.0199 11.8101 15.7458C11.8321 15.7356 11.8544 15.7261 11.8764 15.7156C12.0552 15.6316 12.23 15.5409 12.4012 15.4444C12.4438 15.4204 12.4861 15.396 12.5284 15.3711C12.6843 15.2792 12.8376 15.1833 12.9866 15.0813C13.0402 15.0448 13.0926 15.0063 13.1456 14.968C13.2728 14.8764 13.3977 14.782 13.5192 14.6832C13.5461 14.6614 13.5751 14.6426 13.6014 14.6203L13.8666 14.3989L13.8588 14.3922C15.4612 12.9341 16.4688 10.8327 16.4688 8.5ZM1.1108 8.5C1.1108 4.42551 4.42551 1.1108 8.5 1.1108C12.5745 1.1108 15.8892 4.42551 15.8892 8.5C15.8892 10.6956 14.9257 12.6695 13.4003 14.0239C13.3152 13.9651 13.2294 13.9124 13.1416 13.8683L10.6881 12.6417C10.4678 12.5316 10.3311 12.3102 10.3311 12.0642V11.2073C10.3879 11.1372 10.4479 11.0578 10.5099 10.9706C10.8275 10.522 11.0822 10.023 11.2679 9.4861C11.635 9.31165 11.8721 8.94596 11.8721 8.53303V7.50579C11.8721 7.25456 11.7799 7.01086 11.6151 6.81932V5.46695C11.6301 5.31656 11.6834 4.46781 11.0694 3.76772C10.5354 3.15804 9.67097 2.84943 8.5 2.84943C7.32903 2.84943 6.46464 3.15804 5.93058 3.76743C5.31656 4.46752 5.36987 5.31627 5.38494 5.46666V6.81903C5.22035 7.01057 5.12791 7.25427 5.12791 7.5055V8.53274C5.12791 8.85178 5.27106 9.14938 5.51621 9.35019C5.75093 10.2696 6.23398 10.9657 6.41248 11.2016V12.0402C6.41248 12.2766 6.28353 12.4939 6.07576 12.6075L3.78453 13.8573C3.71151 13.897 3.63906 13.9434 3.56662 13.9952C2.06009 12.6414 1.1108 10.6797 1.1108 8.5ZM12.8347 14.4786C12.7333 14.5522 12.6301 14.6235 12.5255 14.6916C12.4774 14.7229 12.4296 14.7542 12.3806 14.7846C12.2439 14.8692 12.1048 14.9498 11.9628 15.0251C11.9315 15.0416 11.8999 15.0573 11.8683 15.0735C11.542 15.2407 11.2044 15.3844 10.8576 15.5012C10.8454 15.5053 10.8332 15.5096 10.8208 15.5137C10.6391 15.5739 10.4551 15.6275 10.2691 15.6736C10.2685 15.6736 10.2679 15.6739 10.2673 15.6739C10.0796 15.7203 9.88946 15.7588 9.69821 15.7904C9.69299 15.7913 9.68778 15.7924 9.68256 15.7933C9.50261 15.8226 9.32122 15.8437 9.13924 15.8596C9.10707 15.8625 9.07491 15.8646 9.04245 15.8669C8.8625 15.8805 8.68169 15.8892 8.5 15.8892C8.31628 15.8892 8.13315 15.8802 7.95088 15.8666C7.9193 15.8643 7.88771 15.8623 7.85641 15.8594C7.6727 15.8431 7.48985 15.8214 7.30874 15.7918C7.30063 15.7904 7.29252 15.7889 7.2844 15.7875C6.90132 15.7235 6.52433 15.6293 6.15719 15.5061C6.14589 15.5024 6.1343 15.4983 6.12299 15.4945C5.94073 15.4325 5.76049 15.3638 5.58344 15.2879C5.58228 15.2873 5.58083 15.2868 5.57967 15.2862C5.41218 15.214 5.24788 15.1341 5.08561 15.0497C5.06445 15.0387 5.04301 15.0283 5.02215 15.017C4.87407 14.9379 4.72919 14.8524 4.58633 14.7631C4.54402 14.7365 4.50201 14.7095 4.46028 14.6823C4.32872 14.5962 4.1989 14.5067 4.07256 14.4119C4.05952 14.4021 4.04706 14.3917 4.03402 14.3818C4.0433 14.3766 4.05257 14.3714 4.06184 14.3662L6.35307 13.1164C6.74716 12.9014 6.99202 12.489 6.99202 12.0402L6.99173 10.9964L6.92509 10.9158C6.91871 10.9086 6.29222 10.1465 6.05548 9.11461L6.02911 8.99986L5.9303 8.93582C5.79091 8.8457 5.70746 8.69502 5.70746 8.53245V7.50521C5.70746 7.37047 5.76455 7.24499 5.86886 7.15082L5.96449 7.06447V5.45043L5.96188 5.41247C5.96101 5.40552 5.87553 4.70861 6.3664 4.14906C6.78541 3.67152 7.50347 3.42898 8.5 3.42898C9.49276 3.42898 10.2085 3.66949 10.6287 4.14356C11.119 4.69731 11.0387 5.40726 11.0381 5.41305L11.0355 7.06505L11.1311 7.1514C11.2352 7.24528 11.2925 7.37105 11.2925 7.50579V8.53303C11.2925 8.73964 11.152 8.92712 10.9503 8.98943L10.8063 9.03376L10.7599 9.1772C10.589 9.70835 10.3456 10.1989 10.0367 10.6353C9.96074 10.7426 9.88685 10.8376 9.82339 10.9103L9.75153 10.9923V12.0642C9.75153 12.5313 10.0112 12.9515 10.429 13.1601L12.8825 14.3867C12.8982 14.3946 12.9135 14.4027 12.9289 14.4108C12.8979 14.4343 12.866 14.456 12.8347 14.4786Z" fill="black"/>
<path d="M17 8.5C17 3.81325 13.1867 0 8.5 0C3.81325 0 0 3.81325 0 8.5C0 10.9755 1.06451 13.2068 2.75895 14.7616L2.75091 14.7687L3.02662 15.0011C3.04455 15.0163 3.06402 15.0286 3.08195 15.0435C3.22845 15.1649 3.38022 15.2802 3.53476 15.3918C3.58484 15.428 3.63491 15.4641 3.68591 15.4994C3.85096 15.6131 4.02035 15.721 4.19344 15.8233C4.23115 15.8455 4.26916 15.8672 4.30718 15.8888C4.49665 15.9967 4.69015 16.0984 4.88827 16.1917C4.9028 16.1985 4.91764 16.2047 4.93216 16.2115C5.57785 16.5116 6.26713 16.732 6.98793 16.8621C7.00678 16.8655 7.02564 16.8689 7.0448 16.8723C7.26858 16.911 7.49484 16.9419 7.72387 16.9626C7.75169 16.9651 7.77951 16.9666 7.80764 16.9691C8.03575 16.9879 8.26633 17 8.5 17C8.73151 17 8.95993 16.9879 9.1868 16.9697C9.21555 16.9672 9.24429 16.9657 9.27304 16.9632C9.50022 16.9425 9.72462 16.9125 9.94624 16.8745C9.9654 16.8711 9.98487 16.8677 10.004 16.864C10.714 16.7367 11.3934 16.5212 12.0307 16.2288C12.0542 16.218 12.078 16.2078 12.1015 16.1967C12.2922 16.107 12.4786 16.0103 12.6613 15.9074C12.7067 15.8817 12.7519 15.8557 12.797 15.8292C12.9633 15.7312 13.1268 15.6289 13.2857 15.5201C13.3428 15.4811 13.3988 15.44 13.4553 15.3992C13.591 15.3015 13.7243 15.2008 13.8538 15.0954C13.8825 15.0722 13.9134 15.0521 13.9415 15.0283L14.2244 14.7922L14.216 14.7851C15.9253 13.2297 17 10.9882 17 8.5ZM0.618182 8.5C0.618182 4.15387 4.15387 0.618182 8.5 0.618182C12.8461 0.618182 16.3818 4.15387 16.3818 8.5C16.3818 10.842 15.3541 12.9475 13.727 14.3922C13.6362 14.3295 13.5447 14.2732 13.451 14.2262L10.8339 12.9178C10.599 12.8004 10.4531 12.5642 10.4531 12.3018V11.3878C10.5137 11.313 10.5777 11.2283 10.6439 11.1353C10.9826 10.6568 11.2543 10.1246 11.4524 9.55184C11.8441 9.36576 12.0969 8.97569 12.0969 8.53524V7.43951C12.0969 7.17153 11.9986 6.91158 11.8227 6.70727V5.26475C11.8388 5.10433 11.8957 4.199 11.2407 3.45224C10.6711 2.80191 9.74904 2.47273 8.5 2.47273C7.25096 2.47273 6.32895 2.80191 5.75929 3.45193C5.10433 4.19869 5.1612 5.10402 5.17727 5.26444V6.70696C5.00171 6.91127 4.90311 7.17122 4.90311 7.4392V8.53493C4.90311 8.87524 5.0558 9.19267 5.31729 9.40687C5.56765 10.3876 6.08291 11.1301 6.27331 11.3817V12.2762C6.27331 12.5284 6.13576 12.7602 5.91415 12.8814L3.47016 14.2145C3.39227 14.2568 3.315 14.3063 3.23773 14.3616C1.63076 12.9175 0.618182 10.825 0.618182 8.5ZM13.1237 14.8772C13.0155 14.9557 12.9055 15.0317 12.7939 15.1043C12.7426 15.1377 12.6916 15.1711 12.6393 15.2036C12.4935 15.2938 12.3451 15.3797 12.1936 15.4601C12.1603 15.4777 12.1266 15.4944 12.0929 15.5117C11.7448 15.6901 11.3847 15.8434 11.0148 15.9679C11.0018 15.9723 10.9888 15.9769 10.9755 15.9812C10.7817 16.0455 10.5854 16.1027 10.387 16.1519C10.3864 16.1519 10.3858 16.1522 10.3851 16.1522C10.1849 16.2016 9.98209 16.2427 9.77809 16.2764C9.77253 16.2773 9.76696 16.2786 9.7614 16.2795C9.56945 16.3107 9.37596 16.3333 9.18185 16.3503C9.14755 16.3534 9.11324 16.3555 9.07862 16.358C8.88667 16.3725 8.6938 16.3818 8.5 16.3818C8.30404 16.3818 8.10869 16.3722 7.91427 16.3577C7.88058 16.3552 7.84689 16.3531 7.81351 16.35C7.61755 16.3327 7.42251 16.3095 7.22933 16.278C7.22067 16.2764 7.21202 16.2749 7.20336 16.2733C6.79475 16.205 6.39262 16.1046 6.001 15.9732C5.98895 15.9692 5.97658 15.9649 5.96453 15.9608C5.77011 15.8947 5.57785 15.8214 5.389 15.7405C5.38776 15.7398 5.38622 15.7392 5.38498 15.7386C5.20633 15.6616 5.03107 15.5763 4.85798 15.4864C4.83542 15.4746 4.81255 15.4635 4.79029 15.4515C4.63235 15.3671 4.4778 15.2759 4.32542 15.1807C4.28029 15.1523 4.23547 15.1235 4.19096 15.0945C4.05064 15.0027 3.91216 14.9071 3.7774 14.8061C3.76349 14.7956 3.7502 14.7844 3.73629 14.7739C3.74618 14.7684 3.75607 14.7628 3.76596 14.7572L6.20995 13.4241C6.63031 13.1948 6.89149 12.7549 6.89149 12.2762L6.89118 11.1628L6.82009 11.0769C6.81329 11.0692 6.14504 10.2563 5.89251 9.15558L5.86438 9.03318L5.75898 8.96487C5.61031 8.86875 5.52129 8.70802 5.52129 8.53462V7.43889C5.52129 7.29516 5.58218 7.16133 5.69345 7.06087L5.79545 6.96876V5.24713L5.79267 5.20664C5.79175 5.19922 5.70056 4.45585 6.22416 3.859C6.67111 3.34962 7.43704 3.09091 8.5 3.09091C9.55895 3.09091 10.3224 3.34745 10.7706 3.85313C11.2936 4.4438 11.2079 5.20107 11.2073 5.20725L11.2045 6.96938L11.3065 7.06149C11.4175 7.16164 11.4787 7.29578 11.4787 7.43951V8.53524C11.4787 8.75562 11.3288 8.9556 11.1137 9.02205L10.9601 9.06935L10.9106 9.22235C10.7282 9.78891 10.4686 10.3122 10.1391 10.7777C10.0581 10.8921 9.97931 10.9934 9.91162 11.071L9.83496 11.1585V12.3018C9.83496 12.8001 10.1119 13.2483 10.5576 13.4708L13.1747 14.7792C13.1914 14.7875 13.2078 14.7962 13.2241 14.8048C13.1911 14.8299 13.1571 14.8531 13.1237 14.8772Z" fill="black"/>
</svg>
