<svg width="24" height="24" viewBox="0 0 24 24" fill="none" xmlns="http://www.w3.org/2000/svg">
<path d="M13.9348 23.844C13.8348 23.8611 13.7345 23.8769 13.6338 23.8914C13.7345 23.8769 13.8348 23.8611 13.9348 23.844Z" fill="white"/>
<path d="M14.1751 23.803C14.1273 23.8122 14.0795 23.8207 14.0317 23.8294C14.0795 23.8207 14.1273 23.8122 14.1751 23.803Z" fill="white"/>
<path d="M13.366 23.9224C13.249 23.9362 13.1313 23.9486 13.0132 23.959C13.1313 23.9486 13.249 23.9362 13.366 23.9224Z" fill="white"/>
<path d="M13.5967 23.8938C13.5405 23.8975 13.4839 23.901 13.4275 23.9043C13.4839 23.901 13.5405 23.8975 13.5967 23.8938Z" fill="white"/>
<path d="M14.5012 23.7378C14.4591 23.7472 14.4168 23.7567 14.3745 23.7657C14.4168 23.7567 14.4591 23.7472 14.5012 23.7378Z" fill="white"/>
<path d="M15.3126 23.5364C15.2786 23.5466 15.2445 23.5562 15.2104 23.5663C15.2445 23.5562 15.2786 23.5466 15.3126 23.5364Z" fill="white"/>
<path d="M15.0667 23.6038C15.0297 23.614 14.9925 23.6244 14.9553 23.6342C14.9925 23.6244 15.0297 23.6142 15.0667 23.6038Z" fill="white"/>
<path d="M14.7469 23.6836C14.7078 23.6932 14.6682 23.7023 14.6287 23.7115C14.6682 23.7023 14.7078 23.6932 14.7469 23.6836Z" fill="white"/>
<path d="M13.009 23.9575C12.9459 23.9602 12.8827 23.9626 12.8193 23.9647C12.8827 23.9626 12.9459 23.9602 13.009 23.9575Z" fill="white"/>
<path d="M24 12C24 5.3736 18.6264 0 12 0C5.3736 0 0 5.3736 0 12C0 18.6264 5.3736 24 12 24C12.0705 24 12.1406 23.9985 12.2109 23.9973V14.6558H9.63281V11.6512H12.2109V9.44019C12.2109 6.87598 13.7763 5.48035 16.0637 5.48035C17.159 5.48035 18.1005 5.56201 18.375 5.59845V8.27838H16.7977C15.5533 8.27838 15.3124 8.86981 15.3124 9.73755V11.6512H18.2878L17.9 14.6558H15.3124V23.5364C20.3282 22.0984 24 17.4774 24 12Z" fill="white"/>
<path d="M12.7926 23.9734C12.6677 23.9774 12.5423 23.9807 12.4165 23.9828C12.5423 23.9807 12.6677 23.9774 12.7926 23.9734Z" fill="white"/>
<path d="M12.4104 23.9925C12.3441 23.9936 12.2776 23.9944 12.2112 23.995C12.2776 23.9944 12.3441 23.9936 12.4104 23.9925Z" fill="white"/>
</svg>
