<svg width="24" height="24" viewBox="0 0 24 24" fill="none" xmlns="http://www.w3.org/2000/svg">
<path d="M14.2969 12C14.2969 13.2686 13.2686 14.2969 12 14.2969C10.7314 14.2969 9.70312 13.2686 9.70312 12C9.70312 10.7315 10.7314 9.70316 12 9.70316C13.2686 9.70316 14.2969 10.7315 14.2969 12Z" fill="white"/>
<path d="M17.3717 7.93607C17.2613 7.63687 17.0852 7.36606 16.8563 7.14377C16.634 6.91489 16.3634 6.73874 16.064 6.62833C15.8212 6.53403 15.4565 6.42178 14.7846 6.3912C14.0579 6.35806 13.84 6.35092 12.0002 6.35092C10.1602 6.35092 9.94229 6.35788 9.21573 6.39102C8.54392 6.42178 8.179 6.53403 7.93639 6.62833C7.63701 6.73874 7.3662 6.91489 7.1441 7.14377C6.91522 7.36606 6.73907 7.63669 6.62848 7.93607C6.53418 8.17886 6.42194 8.54379 6.39136 9.21561C6.35822 9.94217 6.35107 10.1601 6.35107 12.0001C6.35107 13.8399 6.35822 14.0578 6.39136 14.7846C6.42194 15.4564 6.53418 15.8211 6.62848 16.0639C6.73907 16.3633 6.91503 16.6339 7.14391 16.8562C7.3662 17.0851 7.63683 17.2613 7.9362 17.3717C8.179 17.4662 8.54392 17.5784 9.21573 17.609C9.94229 17.6421 10.16 17.6491 12 17.6491C13.8402 17.6491 14.0581 17.6421 14.7845 17.609C15.4563 17.5784 15.8212 17.4662 16.064 17.3717C16.6649 17.1399 17.1399 16.6649 17.3717 16.0639C17.466 15.8211 17.5783 15.4564 17.609 14.7846C17.6422 14.0578 17.6491 13.8399 17.6491 12.0001C17.6491 10.1601 17.6422 9.94217 17.609 9.21561C17.5784 8.54379 17.4662 8.17886 17.3717 7.93607ZM12.0002 15.5382C10.0459 15.5382 8.46171 13.9542 8.46171 11.9999C8.46171 10.0456 10.0459 8.46158 12.0002 8.46158C13.9543 8.46158 15.5385 10.0456 15.5385 11.9999C15.5385 13.9542 13.9543 15.5382 12.0002 15.5382ZM15.6784 9.14859C15.2217 9.14859 14.8515 8.77835 14.8515 8.32169C14.8515 7.86502 15.2217 7.49478 15.6784 7.49478C16.135 7.49478 16.5053 7.86502 16.5053 8.32169C16.5051 8.77835 16.135 9.14859 15.6784 9.14859Z" fill="white"/>
<path d="M12 0C5.3736 0 0 5.3736 0 12C0 18.6264 5.3736 24 12 24C18.6264 24 24 18.6264 24 12C24 5.3736 18.6264 0 12 0ZM18.8491 14.8409C18.8157 15.5744 18.6991 16.0752 18.5288 16.5135C18.1708 17.4391 17.4391 18.1708 16.5135 18.5288C16.0754 18.6991 15.5744 18.8156 14.8411 18.8491C14.1063 18.8826 13.8715 18.8906 12.0002 18.8906C10.1287 18.8906 9.8941 18.8826 9.15912 18.8491C8.42578 18.8156 7.9248 18.6991 7.48663 18.5288C7.02667 18.3558 6.61029 18.0846 6.26605 17.7339C5.91559 17.3899 5.64441 16.9733 5.47137 16.5135C5.30109 16.0754 5.18445 15.5744 5.15112 14.8411C5.11725 14.1061 5.10938 13.8713 5.10938 12C5.10938 10.1287 5.11725 9.89392 5.15094 9.15912C5.18427 8.4256 5.30072 7.9248 5.47101 7.48645C5.64404 7.02667 5.91541 6.61011 6.26605 6.26605C6.61011 5.91541 7.02667 5.64423 7.48645 5.47119C7.9248 5.3009 8.4256 5.18445 9.15912 5.15094C9.89392 5.11743 10.1287 5.10938 12 5.10938C13.8713 5.10938 14.1061 5.11743 14.8409 5.15112C15.5744 5.18445 16.0752 5.3009 16.5135 5.47101C16.9733 5.64404 17.3899 5.91541 17.7341 6.26605C18.0846 6.61029 18.356 7.02667 18.5288 7.48645C18.6993 7.9248 18.8157 8.4256 18.8492 9.15912C18.8828 9.89392 18.8906 10.1287 18.8906 12C18.8906 13.8713 18.8828 14.1061 18.8491 14.8409Z" fill="white"/>
</svg>
