<svg width="223" height="30" viewBox="0 0 223 30" fill="none" xmlns="http://www.w3.org/2000/svg">
<path d="M53.16 21.2169C53.16 20.2358 52.8402 19.4841 52.2005 18.9615C51.5609 18.4389 50.4002 17.8819 48.7185 17.2905C45.3191 16.1827 42.7941 15.003 41.1436 13.7513C39.4931 12.4997 38.6686 10.7004 38.6701 8.35346C38.6701 6.05193 39.6296 4.19005 41.5484 2.76783C43.4673 1.3456 45.9073 0.634491 48.8682 0.634491C51.9884 0.634491 54.504 1.36751 56.4151 2.83354C58.3261 4.29958 59.2489 6.36642 59.1834 9.03407L59.1436 9.14672H52.9728C52.9728 7.85123 52.621 6.91246 51.9174 6.33043C51.2138 5.7484 50.1537 5.45112 48.7372 5.43861C47.5843 5.43861 46.6748 5.72102 46.0087 6.28584C45.6946 6.53623 45.4416 6.85511 45.2689 7.21827C45.0961 7.58142 45.0082 7.97928 45.0118 8.38163C45.0047 8.76475 45.0952 9.14334 45.2745 9.4817C45.4538 9.82005 45.7162 10.107 46.0367 10.3155C46.72 10.8005 47.997 11.4084 49.8675 12.139C53.0406 13.0778 55.4431 14.2286 57.075 15.5913C58.7068 16.9541 59.5219 18.8168 59.5204 21.1793C59.5204 23.5951 58.5796 25.4851 56.6982 26.8494C54.8168 28.2138 52.3207 28.8967 49.2099 28.8983C46.1116 28.8983 43.4868 28.1653 41.3355 26.6992C39.1842 25.2332 38.1397 22.9277 38.2021 19.7829L38.2395 19.6679H44.4314C44.4314 21.2669 44.8214 22.4028 45.6015 23.0756C46.3815 23.7484 47.5828 24.0848 49.2052 24.0848C50.5344 24.0848 51.5258 23.8204 52.1795 23.2915C52.494 23.0474 52.7468 22.7323 52.9171 22.3718C53.0875 22.0113 53.1707 21.6156 53.16 21.2169Z" fill="black"/>
<path d="M85.0203 18.8394H85.135L88.4462 1.0217H94.8862L88.596 28.5016H82.6124L78.0024 11.5405H77.8877L73.3152 28.5087H67.3316L61.0273 1.0217H67.4813L70.7949 18.8582L70.9072 18.877L75.5546 1.0217H80.3542L85.0203 18.8394Z" fill="black"/>
<path d="M104.066 28.5016H97.7246V1.0217H104.066V28.5016Z" fill="black"/>
<path d="M122.967 21.2169C122.967 20.2358 122.647 19.4841 122.008 18.9615C121.368 18.4389 120.206 17.8819 118.521 17.2905C115.122 16.1827 112.597 15.003 110.946 13.7513C109.296 12.4997 108.471 10.7004 108.473 8.35346C108.473 6.05193 109.432 4.19005 111.351 2.76783C113.27 1.3456 115.711 0.634491 118.673 0.634491C121.793 0.634491 124.308 1.36751 126.218 2.83354C128.127 4.29958 129.05 6.36642 128.986 9.03407L128.949 9.14672H122.773C122.773 7.85123 122.421 6.91246 121.718 6.33043C121.014 5.7484 119.954 5.45112 118.537 5.43861C117.383 5.43861 116.474 5.72102 115.809 6.28584C115.495 6.53623 115.242 6.85511 115.069 7.21827C114.896 7.58142 114.808 7.97928 114.812 8.38163C114.805 8.76475 114.895 9.14334 115.075 9.4817C115.254 9.82005 115.516 10.107 115.837 10.3155C116.52 10.8005 117.797 11.4084 119.668 12.139C122.841 13.0778 125.243 14.2286 126.875 15.5913C128.507 16.9541 129.322 18.8168 129.321 21.1793C129.321 23.5951 128.38 25.4851 126.498 26.8494C124.617 28.2138 122.121 28.8967 119.01 28.8983C115.912 28.8983 113.287 28.1653 111.136 26.6992C108.984 25.2332 107.936 22.9277 107.991 19.7829L108.028 19.6679H114.22C114.22 21.2669 114.61 22.4028 115.39 23.0756C116.17 23.7484 117.371 24.0848 118.994 24.0848C120.325 24.0848 121.316 23.8204 121.968 23.2915C122.286 23.0493 122.542 22.7351 122.716 22.3745C122.89 22.0139 122.976 21.6172 122.967 21.2169Z" fill="black"/>
<path d="M146.918 21.2168C146.918 20.2358 146.598 19.484 145.959 18.9615C145.319 18.4389 144.158 17.8819 142.477 17.2905C139.077 16.1827 136.552 15.003 134.902 13.7513C133.251 12.4997 132.426 10.7004 132.426 8.35345C132.426 6.05192 133.386 4.19004 135.307 2.76782C137.227 1.34559 139.666 0.63135 142.624 0.625092C145.744 0.625092 148.26 1.35811 150.171 2.82414C152.082 4.29018 153.004 6.35702 152.937 9.02467L152.899 9.13732H146.729C146.729 7.84183 146.378 6.90306 145.675 6.32103C144.973 5.739 143.913 5.44485 142.495 5.43859C141.341 5.43859 140.431 5.72101 139.767 6.28583C139.453 6.53622 139.2 6.8551 139.027 7.21825C138.854 7.58141 138.766 7.97927 138.77 8.38161C138.763 8.76473 138.853 9.14333 139.033 9.48168C139.212 9.82004 139.474 10.107 139.795 10.3155C140.478 10.8005 141.755 11.4083 143.626 12.139C146.799 13.0778 149.201 14.2285 150.833 15.5913C152.465 16.9541 153.28 18.8167 153.278 21.1793C153.278 23.595 152.338 25.4851 150.456 26.8494C148.575 28.2137 146.079 28.8967 142.968 28.8983C139.87 28.8983 137.244 28.1652 135.091 26.6992C132.938 25.2332 131.894 22.9277 131.958 19.7829L131.998 19.6679H138.178C138.178 21.2669 138.568 22.4028 139.348 23.0756C140.128 23.7484 141.329 24.0848 142.952 24.0848C144.281 24.0848 145.272 23.8203 145.926 23.2915C146.242 23.0482 146.497 22.7336 146.669 22.3731C146.842 22.0126 146.927 21.6165 146.918 21.2168Z" fill="black"/>
<path d="M159.337 27.699H174.148V28.7175H158.303V1.23761H159.339L159.337 27.699Z" fill="black"/>
<path d="M196.994 1.23761V19.4895C196.994 22.5076 196.122 24.8663 194.378 26.5654C192.633 28.2646 190.388 29.1142 187.64 29.1142C184.882 29.1142 182.63 28.2614 180.885 26.556C179.139 24.8506 178.267 22.4951 178.268 19.4895V1.23761H179.284V19.4895C179.284 22.0946 180.072 24.1802 181.647 25.7463C183.223 27.3125 185.221 28.0948 187.64 28.0932C190.051 28.0932 192.043 27.3109 193.617 25.7463C195.191 24.1817 195.978 22.0961 195.978 19.4895V1.23761H196.994Z" fill="black"/>
<path d="M211.956 13.9015L220.821 1.22821H222.08L212.614 14.6948L222.475 28.7175H221.216L211.956 15.488L202.715 28.7175H201.473L211.334 14.6948L201.849 1.2376H203.129L211.956 13.9015Z" fill="black"/>
<path d="M28.5 8.51303H20.2184V0.207336H8.28159V8.51303H0V20.4846H8.28159V28.7926H20.2184V20.4846H28.5V8.51303Z" fill="black"/>
</svg>
