<svg width="63" height="19" viewBox="0 0 63 19" fill="none" xmlns="http://www.w3.org/2000/svg">
<path d="M23.3027 18.4115L26.468 0.607056H31.4137L28.3473 18.4115H23.3027Z" fill="#3C58BF"/>
<path d="M23.3027 18.4115L27.3582 0.607056H31.4137L28.3473 18.4115H23.3027Z" fill="#293688"/>
<path d="M46.25 0.80492C45.2609 0.409265 43.6783 0.0136108 41.7 0.0136108C36.7543 0.0136108 33.1934 2.48645 33.1934 6.04735C33.1934 8.71802 35.6662 10.1028 37.6445 10.993C39.6228 11.8833 40.2163 12.4767 40.2163 13.2681C40.2163 14.455 38.6337 15.0485 37.2489 15.0485C35.2706 15.0485 34.1825 14.7518 32.501 14.0594L31.8086 13.7626L31.1162 17.8181C32.3032 18.3127 34.4793 18.8072 36.7543 18.8072C41.9967 18.8072 45.4587 16.3344 45.4587 12.5757C45.4587 10.4985 44.1728 8.91585 41.2054 7.62997C39.425 6.73975 38.3369 6.24518 38.3369 5.35495C38.3369 4.56364 39.2271 3.77233 41.2054 3.77233C42.887 3.77233 44.0739 4.06907 44.9641 4.46473L45.4587 4.66256L46.25 0.80492Z" fill="#3C58BF"/>
<path d="M46.25 0.80492C45.2609 0.409265 43.6783 0.0136108 41.7 0.0136108C36.7543 0.0136108 34.0836 2.48645 34.0836 6.04735C34.0836 8.71802 35.6662 10.1028 37.6445 10.993C39.6228 11.8833 40.2163 12.4767 40.2163 13.2681C40.2163 14.455 38.6337 15.0485 37.2489 15.0485C35.2706 15.0485 34.1825 14.7518 32.501 14.0594L31.8086 13.7626L31.1162 17.8181C32.3032 18.3127 34.4793 18.8072 36.7543 18.8072C41.9967 18.8072 45.4587 16.3344 45.4587 12.5757C45.4587 10.4985 44.1728 8.91585 41.2054 7.62997C39.425 6.73975 38.3369 6.24518 38.3369 5.35495C38.3369 4.56364 39.2271 3.77233 41.2054 3.77233C42.887 3.77233 44.0739 4.06907 44.9641 4.46473L45.4587 4.66256L46.25 0.80492Z" fill="#293688"/>
<path d="M54.7569 0.607056C53.5699 0.607056 52.6797 0.70597 52.1851 1.89294L44.7666 18.4115H50.1079L51.0971 15.4441H57.4275L58.021 18.4115H62.7689L58.6145 0.607056H54.7569ZM52.4819 12.4767C52.7786 11.5865 54.4601 7.23428 54.4601 7.23428C54.4601 7.23428 54.8558 6.14623 55.1525 5.45383L55.4493 7.13536C55.4493 7.13536 56.4384 11.5865 56.6362 12.5756H52.4819V12.4767Z" fill="#3C58BF"/>
<path d="M55.9438 0.607056C54.7569 0.607056 53.8667 0.70597 53.3721 1.89294L44.7666 18.4115H50.1079L51.0971 15.4441H57.4275L58.021 18.4115H62.7689L58.6145 0.607056H55.9438ZM52.4819 12.4767C52.8775 11.4876 54.4601 7.23428 54.4601 7.23428C54.4601 7.23428 54.8558 6.14623 55.1525 5.45383L55.4493 7.13536C55.4493 7.13536 56.4384 11.5865 56.6362 12.5756H52.4819V12.4767Z" fill="#293688"/>
<path d="M14.2017 13.0702L13.7072 10.4984C12.8169 7.53104 9.94844 4.26689 6.7832 2.68427L11.2343 18.5105H16.5757L24.5877 0.705994H19.2463L14.2017 13.0702Z" fill="#3C58BF"/>
<path d="M14.2017 13.0702L13.7072 10.4984C12.8169 7.53104 9.94844 4.26689 6.7832 2.68427L11.2343 18.5105H16.5757L24.5877 0.705994H20.2355L14.2017 13.0702Z" fill="#293688"/>
<path d="M0.453125 0.607056L1.34335 0.804884C7.67383 2.28859 12.026 6.04731 13.7076 10.4984L11.9271 2.09076C11.6304 0.903797 10.7402 0.607056 9.6521 0.607056H0.453125Z" fill="#FFBC00"/>
<path d="M0.453125 0.607056C6.7836 2.09076 12.026 5.9484 13.7076 10.3995L12.026 3.37664C11.7293 2.18968 10.7402 1.49728 9.6521 1.49728L0.453125 0.607056Z" fill="#F7981D"/>
<path d="M0.453125 0.607056C6.7836 2.09076 12.026 5.9484 13.7076 10.3995L12.5206 6.54188C12.2239 5.35492 11.8282 4.16795 10.4434 3.67338L0.453125 0.607056Z" fill="#ED7C00"/>
<path d="M19.1481 12.4767L15.785 9.11364L14.2024 12.8724L13.8068 10.3995C12.9166 7.4321 10.0481 4.16795 6.88281 2.58533L11.3339 18.4115H16.6753L19.1481 12.4767Z" fill="#051244"/>
<path d="M28.3473 18.4114L24.094 14.0592L23.3027 18.4114H28.3473Z" fill="#051244"/>
<path d="M39.7227 12.2788C40.1183 12.6745 40.3162 12.9712 40.2173 13.3669C40.2173 14.5538 38.6346 15.1473 37.2498 15.1473C35.2716 15.1473 34.1835 14.8506 32.502 14.1582L31.8096 13.8614L31.1172 17.9169C32.3042 18.4115 34.4803 18.906 36.7553 18.906C39.9205 18.906 42.4923 18.0158 43.976 16.4332L39.7227 12.2788Z" fill="#051244"/>
<path d="M45.459 18.4116H50.1079L51.0971 15.4441H57.4275L58.021 18.4116H62.7689L61.0874 11.1909L55.1525 5.45386L55.4493 7.03648C55.4493 7.03648 56.4384 11.4876 56.6362 12.4767H52.4819C52.8775 11.4876 54.4601 7.2343 54.4601 7.2343C54.4601 7.2343 54.8558 6.14625 55.1525 5.45386" fill="#051244"/>
</svg>
