<svg width="46" height="28" viewBox="0 0 46 28" fill="none" xmlns="http://www.w3.org/2000/svg">
<path d="M45.2838 13.7452C45.2838 21.0936 39.3485 27.0995 31.9295 27.0995C24.5811 27.0995 18.5752 21.0936 18.5752 13.7452C18.5752 6.39684 24.5104 0.39093 31.8588 0.39093C39.3485 0.39093 45.2838 6.39684 45.2838 13.7452Z" fill="#FFB600"/>
<path d="M31.9295 0.39093C39.2779 0.39093 45.2838 6.39684 45.2838 13.7452C45.2838 21.0936 39.3485 27.0995 31.9295 27.0995C24.5811 27.0995 18.5752 21.0936 18.5752 13.7452" fill="#F7981D"/>
<path d="M31.9297 0.39093C39.2781 0.39093 45.284 6.39684 45.284 13.7452C45.284 21.0936 39.3487 27.0995 31.9297 27.0995" fill="#FF8500"/>
<path d="M13.9825 0.39093C6.70478 0.461588 0.769531 6.39684 0.769531 13.7452C0.769531 21.0936 6.70478 27.0995 14.1238 27.0995C17.5861 27.0995 20.695 25.757 23.0974 23.6373C23.592 23.2134 24.0159 22.7188 24.4399 22.2242H21.6842C21.3309 21.8002 20.9776 21.3056 20.695 20.8817H25.4291C25.7117 20.4577 25.9943 19.9631 26.2063 19.4685H19.9178C19.7058 19.0446 19.4938 18.55 19.3525 18.0554H26.7009C27.1249 16.7129 27.4075 15.2997 27.4075 13.8159C27.4075 12.8267 27.2662 11.9081 27.1249 10.9896H18.9286C18.9992 10.495 19.1405 10.071 19.2819 9.57643H26.6303C26.4889 9.08183 26.277 8.58722 26.065 8.16328H19.8471C20.0591 7.66867 20.3417 7.24473 20.6243 6.75012H25.3584C25.0758 6.25552 24.7225 5.76092 24.2986 5.33697H21.6842C22.1082 4.84237 22.5321 4.41842 23.0267 3.99447C20.695 1.80408 17.5154 0.532245 14.0532 0.532245C14.0532 0.39093 14.0532 0.39093 13.9825 0.39093Z" fill="#FF5050"/>
<path d="M0.769531 13.7452C0.769531 21.0936 6.70478 27.0995 14.1238 27.0995C17.5861 27.0995 20.695 25.757 23.0974 23.6373C23.592 23.2134 24.0159 22.7188 24.4399 22.2241H21.6842C21.3309 21.8002 20.9776 21.3056 20.695 20.8816H25.4291C25.7117 20.4577 25.9943 19.9631 26.2063 19.4685H19.9178C19.7058 19.0445 19.4938 18.5499 19.3525 18.0553H26.7009C27.1249 16.7128 27.4075 15.2997 27.4075 13.8159C27.4075 12.8267 27.2662 11.9081 27.1249 10.9896H18.9286C18.9992 10.495 19.1405 10.071 19.2819 9.57642H26.6303C26.4889 9.08181 26.277 8.58721 26.065 8.16326H19.8471C20.0591 7.66866 20.3417 7.24471 20.6243 6.75011H25.3584C25.0758 6.2555 24.7225 5.7609 24.2986 5.33695H21.6842C22.1082 4.84235 22.5321 4.4184 23.0267 3.99446C20.695 1.80407 17.5154 0.532227 14.0532 0.532227H13.9825" fill="#E52836"/>
<path d="M14.1237 27.0995C17.586 27.0995 20.6949 25.757 23.0973 23.6373C23.5919 23.2134 24.0158 22.7188 24.4398 22.2241H21.6841C21.3308 21.8002 20.9775 21.3056 20.6949 20.8816H25.429C25.7116 20.4577 25.9942 19.9631 26.2062 19.4685H19.9177C19.7057 19.0445 19.4937 18.5499 19.3524 18.0553H26.7008C27.1248 16.7128 27.4074 15.2997 27.4074 13.8159C27.4074 12.8267 27.2661 11.9081 27.1248 10.9896H18.9285C18.9991 10.495 19.1404 10.071 19.2818 9.57642H26.6302C26.4888 9.08181 26.2769 8.58721 26.0649 8.16326H19.847C20.059 7.66866 20.3416 7.24471 20.6242 6.75011H25.3583C25.0757 6.2555 24.7224 5.7609 24.2984 5.33695H21.6841C22.1081 4.84235 22.532 4.4184 23.0266 3.99446C20.6949 1.80407 17.5153 0.532227 14.0531 0.532227H13.9824" fill="#CB2026"/>
<path d="M18.8577 17.1368L19.0696 15.9356C18.999 15.9356 18.8577 16.0063 18.7164 16.0063C18.2217 16.0063 18.1511 15.7237 18.2217 15.5824L18.6457 13.1093H19.4229L19.6349 11.7668H18.9283L19.0696 10.9189H17.6565C17.6565 10.9189 16.8086 15.5824 16.8086 16.1476C16.8086 16.9955 17.3032 17.3488 17.9391 17.3488C18.3631 17.3488 18.7164 17.2075 18.8577 17.1368Z" fill="white"/>
<path d="M19.3525 14.8758C19.3525 16.8542 20.695 17.3488 21.8256 17.3488C22.8854 17.3488 23.3094 17.1368 23.3094 17.1368L23.592 15.7943C23.592 15.7943 22.8148 16.1476 22.1082 16.1476C20.5537 16.1476 20.8364 15.0171 20.8364 15.0171H23.7333C23.7333 15.0171 23.9453 14.0986 23.9453 13.7453C23.9453 12.8267 23.4507 11.6962 21.8962 11.6962C20.4124 11.5549 19.3525 13.1094 19.3525 14.8758ZM21.8256 12.8267C22.6028 12.8267 22.4615 13.7453 22.4615 13.8159H20.907C20.907 13.7453 21.0483 12.8267 21.8256 12.8267Z" fill="white"/>
<path d="M30.7993 17.1367L31.0819 15.5823C31.0819 15.5823 30.3753 15.9356 29.8807 15.9356C28.8915 15.9356 28.4676 15.1583 28.4676 14.3104C28.4676 12.6147 29.3154 11.6961 30.3047 11.6961C31.0112 11.6961 31.5765 12.1201 31.5765 12.1201L31.7885 10.6362C31.7885 10.6362 30.9406 10.283 30.1633 10.283C28.5382 10.283 26.9131 11.6961 26.9131 14.3811C26.9131 16.1475 27.761 17.3487 29.4568 17.3487C30.022 17.3487 30.7993 17.1367 30.7993 17.1367Z" fill="white"/>
<path d="M11.0854 11.5549C10.0962 11.5549 9.3896 11.8376 9.3896 11.8376L9.17762 13.0387C9.17762 13.0387 9.81354 12.7561 10.7321 12.7561C11.2267 12.7561 11.6506 12.8268 11.6506 13.2507C11.6506 13.5333 11.58 13.604 11.58 13.604C11.58 13.604 11.156 13.604 10.9441 13.604C9.74289 13.604 8.40039 14.0986 8.40039 15.7237C8.40039 16.9956 9.24828 17.2782 9.74289 17.2782C10.7321 17.2782 11.156 16.6423 11.2267 16.6423L11.156 17.2075H12.4279L12.9931 13.3214C12.9931 11.6256 11.58 11.5549 11.0854 11.5549ZM11.368 14.7345C11.368 14.9465 11.2267 16.077 10.3788 16.077C9.95486 16.077 9.81354 15.7237 9.81354 15.5118C9.81354 15.1585 10.0255 14.6639 11.0854 14.6639C11.2974 14.7345 11.368 14.7345 11.368 14.7345Z" fill="white"/>
<path d="M14.3361 17.2782C14.6894 17.2782 16.4558 17.3488 16.4558 15.4411C16.4558 13.6746 14.76 14.0279 14.76 13.3214C14.76 12.9681 15.0426 12.8267 15.5372 12.8267C15.7492 12.8267 16.5265 12.8974 16.5265 12.8974L16.7384 11.6256C16.7384 11.6256 16.2438 11.4843 15.3959 11.4843C14.3361 11.4843 13.2762 11.9082 13.2762 13.3214C13.2762 14.9465 15.0426 14.8052 15.0426 15.4411C15.0426 15.865 14.548 15.9357 14.1948 15.9357C13.5588 15.9357 12.9229 15.7237 12.9229 15.7237L12.7109 16.9956C12.7816 17.1369 13.1349 17.2782 14.3361 17.2782Z" fill="white"/>
<path d="M42.5275 10.4244L42.2449 12.3322C42.2449 12.3322 41.6796 11.6256 40.9024 11.6256C39.6305 11.6256 38.5 13.1801 38.5 15.0172C38.5 16.1477 39.0653 17.3489 40.2664 17.3489C41.1143 17.3489 41.6089 16.7836 41.6089 16.7836L41.5383 17.2782H42.9514L44.0113 10.4951L42.5275 10.4244ZM41.8916 14.1693C41.8916 14.9465 41.5383 15.9357 40.761 15.9357C40.2664 15.9357 39.9838 15.5118 39.9838 14.8052C39.9838 13.6747 40.4784 12.9681 41.1143 12.9681C41.6089 12.9681 41.8916 13.3214 41.8916 14.1693Z" fill="white"/>
<path d="M3.38351 17.2083L4.2314 12.121L4.37272 17.2083H5.36193L7.19903 12.121L6.42179 17.2083H7.90561L9.03613 10.4252H6.70442L5.29127 14.594L5.22061 10.4252H3.17154L2.04102 17.2083H3.38351Z" fill="white"/>
<path d="M25.2879 17.2075C25.7118 14.8758 25.7825 12.968 26.7717 13.3213C26.913 12.4027 27.125 12.0495 27.2663 11.6962C27.2663 11.6962 27.1956 11.6962 26.9837 11.6962C26.3477 11.6962 25.8531 12.5441 25.8531 12.5441L25.9944 11.7668H24.6519L23.7334 17.2781H25.2879V17.2075Z" fill="white"/>
<path d="M34.0493 11.5549C33.06 11.5549 32.3535 11.8376 32.3535 11.8376L32.1415 13.0387C32.1415 13.0387 32.7774 12.7561 33.696 12.7561C34.1906 12.7561 34.6145 12.8268 34.6145 13.2507C34.6145 13.5333 34.5439 13.604 34.5439 13.604C34.5439 13.604 34.1199 13.604 33.9079 13.604C32.7068 13.604 31.3643 14.0986 31.3643 15.7237C31.3643 16.9956 32.2122 17.2782 32.7068 17.2782C33.696 17.2782 34.1199 16.6423 34.1906 16.6423L34.1199 17.2075H35.3918L35.957 13.3214C36.0277 11.6256 34.5439 11.5549 34.0493 11.5549ZM34.4025 14.7345C34.4025 14.9465 34.2612 16.077 33.4133 16.077C32.9894 16.077 32.8481 15.7237 32.8481 15.5118C32.8481 15.1585 33.06 14.6639 34.1199 14.6639C34.3319 14.7345 34.3319 14.7345 34.4025 14.7345Z" fill="white"/>
<path d="M37.158 17.2075C37.5819 14.8758 37.6526 12.968 38.6418 13.3213C38.7831 12.4027 38.9951 12.0495 39.1364 11.6962C39.1364 11.6962 39.0657 11.6962 38.8538 11.6962C38.2179 11.6962 37.7232 12.5441 37.7232 12.5441L37.8646 11.7668H36.5221L35.6035 17.2781H37.158V17.2075Z" fill="white"/>
<path d="M16.668 16.1476C16.668 16.9955 17.1626 17.3488 17.7985 17.3488C18.2931 17.3488 18.717 17.2075 18.8584 17.1368L19.0703 15.9356C18.9997 15.9356 18.8584 16.0063 18.717 16.0063C18.2224 16.0063 18.1518 15.7237 18.2224 15.5824L18.6464 13.1093H19.4236L19.6356 11.7668H18.929L19.0703 10.9189" fill="#DCE5E5"/>
<path d="M20.0586 14.8758C20.0586 16.8542 20.6945 17.3488 21.825 17.3488C22.8849 17.3488 23.3088 17.1368 23.3088 17.1368L23.5915 15.7943C23.5915 15.7943 22.8142 16.1476 22.1077 16.1476C20.5532 16.1476 20.8358 15.0171 20.8358 15.0171H23.7328C23.7328 15.0171 23.9448 14.0986 23.9448 13.7453C23.9448 12.8267 23.4502 11.6962 21.8957 11.6962C20.4119 11.5549 20.0586 13.1094 20.0586 14.8758ZM21.825 12.8267C22.6023 12.8267 22.7436 13.7453 22.7436 13.8159H20.9065C20.9065 13.7453 21.0478 12.8267 21.825 12.8267Z" fill="#DCE5E5"/>
<path d="M30.7987 17.1367L31.0814 15.5823C31.0814 15.5823 30.3748 15.9356 29.8802 15.9356C28.891 15.9356 28.467 15.1583 28.467 14.3104C28.467 12.6147 29.3149 11.6961 30.3041 11.6961C31.0107 11.6961 31.576 12.1201 31.576 12.1201L31.7879 10.6362C31.7879 10.6362 30.9401 10.283 30.1628 10.283C28.5377 10.283 27.6191 11.6961 27.6191 14.3811C27.6191 16.1475 27.7605 17.3487 29.4562 17.3487C30.0215 17.3487 30.7987 17.1367 30.7987 17.1367Z" fill="#DCE5E5"/>
<path d="M9.17762 13.1093C9.17762 13.1093 9.81354 12.8267 10.7321 12.8267C11.2267 12.8267 11.6506 12.8973 11.6506 13.3213C11.6506 13.6039 11.58 13.6746 11.58 13.6746C11.58 13.6746 11.156 13.6746 10.9441 13.6746C9.74289 13.6746 8.40039 14.1692 8.40039 15.7943C8.40039 17.0661 9.24828 17.3488 9.74289 17.3488C10.7321 17.3488 11.156 16.7129 11.2267 16.7129L11.156 17.2781H12.4279L12.9931 13.3919C12.9931 11.7668 11.58 11.6962 11.0147 11.6962L9.17762 13.1093ZM12.0746 14.7344C12.0746 14.9464 11.2267 16.0769 10.3788 16.0769C9.95486 16.0769 9.81354 15.7237 9.81354 15.5117C9.81354 15.1584 10.0255 14.6638 11.0854 14.6638C11.2974 14.7344 12.0746 14.7344 12.0746 14.7344Z" fill="#DCE5E5"/>
<path d="M12.7812 17.1369C12.7812 17.1369 13.2052 17.2782 14.4064 17.2782C14.7597 17.2782 16.5261 17.3488 16.5261 15.4411C16.5261 13.6746 14.8303 14.0279 14.8303 13.3214C14.8303 12.9681 15.113 12.8267 15.6076 12.8267C15.8195 12.8267 16.5968 12.8974 16.5968 12.8974L16.8087 11.6256C16.8087 11.6256 16.3141 11.4843 15.4662 11.4843C14.4064 11.4843 14.0531 11.9082 14.0531 13.3214C14.0531 14.9465 15.113 14.8052 15.113 15.4411C15.113 15.865 14.6184 15.9357 14.2651 15.9357" fill="#DCE5E5"/>
<path d="M42.2456 12.3321C42.2456 12.3321 41.6803 11.6255 40.9031 11.6255C39.6312 11.6255 39.2073 13.18 39.2073 15.0171C39.2073 16.1476 39.066 17.3488 40.2671 17.3488C41.115 17.3488 41.6096 16.7835 41.6096 16.7835L41.539 17.2781H42.9521L44.012 10.495L42.2456 12.3321ZM42.1749 14.1692C42.1749 14.9464 41.539 15.9356 40.7617 15.9356C40.2671 15.9356 39.9845 15.5117 39.9845 14.8051C39.9845 13.6746 40.4791 12.968 41.115 12.968C41.6096 12.968 42.1749 13.3213 42.1749 14.1692Z" fill="#DCE5E5"/>
<path d="M3.38351 17.2083L4.2314 12.121L4.37272 17.2083H5.36193L7.19903 12.121L6.42179 17.2083H7.90561L9.03613 10.4252H7.26969L5.29127 14.594L5.22061 10.4252H4.44338L2.04102 17.2083H3.38351Z" fill="#DCE5E5"/>
<path d="M23.8037 17.2075H25.2875C25.7115 14.8758 25.7821 12.968 26.7713 13.3213C26.9127 12.4027 27.1246 12.0495 27.2659 11.6962C27.2659 11.6962 27.1953 11.6962 26.9833 11.6962C26.3474 11.6962 25.8528 12.5441 25.8528 12.5441L25.9941 11.7668" fill="#DCE5E5"/>
<path d="M32.1415 13.1093C32.1415 13.1093 32.7774 12.8267 33.696 12.8267C34.1906 12.8267 34.6145 12.8973 34.6145 13.3213C34.6145 13.6039 34.5439 13.6746 34.5439 13.6746C34.5439 13.6746 34.1199 13.6746 33.9079 13.6746C32.7068 13.6746 31.3643 14.1692 31.3643 15.7943C31.3643 17.0661 32.2122 17.3488 32.7068 17.3488C33.696 17.3488 34.1199 16.7129 34.1906 16.7129L34.1199 17.2781H35.3917L35.957 13.3919C35.957 11.7668 34.5439 11.6962 33.9786 11.6962L32.1415 13.1093ZM35.0385 14.7344C35.0385 14.9464 34.1906 16.0769 33.3427 16.0769C32.9187 16.0769 32.7774 15.7237 32.7774 15.5117C32.7774 15.1584 32.9894 14.6638 34.0493 14.6638C34.3319 14.7344 35.0385 14.7344 35.0385 14.7344Z" fill="#DCE5E5"/>
<path d="M35.6738 17.2075H37.1576C37.5816 14.8758 37.6522 12.968 38.6415 13.3213C38.7828 12.4027 38.9947 12.0495 39.1361 11.6962C39.1361 11.6962 39.0654 11.6962 38.8534 11.6962C38.2175 11.6962 37.7229 12.5441 37.7229 12.5441L37.8642 11.7668" fill="#DCE5E5"/>
</svg>
