<svg width="76" height="27" viewBox="0 0 76 27" fill="none" xmlns="http://www.w3.org/2000/svg">
<path d="M6.91504 6.82527H9.53643L8.22573 3.48895L6.91504 6.82527Z" fill="#2FABF7"/>
<path d="M39.4437 3.96559C39.2054 3.84643 38.848 3.84644 38.4905 3.84644H36.1074V5.7529H38.4905C38.848 5.7529 39.2054 5.7529 39.4437 5.63375C39.682 5.51459 39.8012 5.15713 39.8012 4.79967C39.9204 4.32305 39.682 4.08474 39.4437 3.96559Z" fill="#228FE0"/>
<path d="M64.9428 0.39093V1.82078L64.2279 0.39093H58.6276V1.82078L57.9127 0.39093H50.2869C48.9762 0.39093 47.9038 0.629239 46.9506 1.10585V0.39093H41.5886V1.10585C40.9928 0.629239 40.2779 0.39093 39.3247 0.39093H20.1409L18.8302 3.36978L17.5195 0.39093H11.4426V1.82078L10.7277 0.39093H5.60409L3.22101 5.99117L0.480469 12.1872H3.22101H6.55733L7.27225 10.2807H8.94041L9.65533 12.1872H16.5663V10.7573L17.162 12.1872H20.6175L21.2133 10.7573V12.1872H37.7757V9.08918H38.014C38.2523 9.08918 38.2523 9.08918 38.2523 9.44664V12.068H46.8314V11.3531C47.5463 11.7106 48.6187 12.068 50.0486 12.068H53.6232L54.3381 10.1616H56.0063L56.7212 12.068H63.6321V10.2807L64.7045 12.068H70.3047V0.39093H64.9428ZM24.6687 10.3999H22.6431V3.8464L19.7834 10.3999H17.9961L15.1364 3.8464V10.3999H11.0852L10.2511 8.61256H6.19986L5.48494 10.519H3.22101L6.79563 2.05909H9.77449L13.1108 10.0424V2.05909H16.328L18.9493 7.77848L21.3324 2.05909H24.6687V10.3999ZM32.7712 3.8464H28.1242V5.3954H32.6521V7.06356H28.1242V8.73171H32.7712V10.519H26.0986V2.05909H32.7712V3.8464ZM41.7078 7.30187C41.9461 7.77848 42.0652 8.13594 42.0652 8.85087V10.519H40.0396V9.44664C40.0396 8.97002 40.0396 8.2551 39.6822 7.77848C39.3247 7.42102 38.9672 7.42102 38.2523 7.42102H36.1075V10.519H34.0819V2.05909H38.6098C39.6822 2.05909 40.3971 2.05909 40.9928 2.41655C41.5886 2.77401 41.9461 3.36978 41.9461 4.32302C41.9461 5.63371 41.112 6.34863 40.5162 6.58694C41.112 6.7061 41.4695 7.06356 41.7078 7.30187ZM45.2824 10.3999H43.2568V1.93993H45.2824V10.3999ZM68.7557 10.3999H65.896L62.0831 4.08471V10.3999H58.0319L57.317 8.61256H53.1466L52.4316 10.519H50.1677C49.2145 10.519 48.0229 10.2807 47.308 9.56579C46.5931 8.85087 46.2356 7.89763 46.2356 6.34863C46.2356 5.15709 46.4739 3.96555 47.308 3.01232C47.9038 2.2974 48.9762 2.05909 50.2869 2.05909H52.1933V3.8464H50.2869C49.5719 3.8464 49.2145 3.96555 48.7379 4.32302C48.3804 4.68048 48.1421 5.3954 48.1421 6.22948C48.1421 7.18271 48.2612 7.77848 48.7379 8.2551C49.0953 8.61256 49.5719 8.73171 50.1677 8.73171H51.0018L53.7423 2.17824H56.7212L60.0575 10.1616V2.17824H63.0364L66.4918 8.01679V2.17824H68.5174V10.3999H68.7557Z" fill="#0571C1"/>
<path d="M53.8613 6.82521H56.6019L55.2912 3.48889L53.8613 6.82521Z" fill="#228FE0"/>
<path d="M33.6048 23.9834V17.1917L30.5068 20.528L33.6048 23.9834Z" fill="#228FE0"/>
<path d="M20.8564 18.0257V19.5747H25.2651V21.2429H20.8564V23.0302H25.7418L28.0057 20.5279L25.8609 18.0257H20.8564Z" fill="#2FABF7"/>
<path d="M38.1331 18.0257H35.6309V20.1705H38.2522C38.9672 20.1705 39.4438 19.813 39.4438 19.0981C39.3246 18.3832 38.848 18.0257 38.1331 18.0257Z" fill="#228FE0"/>
<path d="M74.9519 20.0513V14.6894H73.522H69.9474C68.875 14.6894 68.0409 14.9277 67.4452 15.4043V14.6894H61.9641C61.13 14.6894 60.0576 14.9277 59.581 15.4043V14.6894H49.9295V15.4043C49.2146 14.8085 47.9039 14.6894 47.3081 14.6894H40.8738V15.4043C40.278 14.8085 38.8482 14.6894 38.1332 14.6894H30.984L29.3158 16.4767L27.7668 14.6894H17.043V26.3665H27.5285L29.1967 24.5792L30.7457 26.3665H37.18V23.6259H38.0141C38.8482 23.6259 39.9206 23.6259 40.7546 23.2685V26.4856H46.1166V23.3876H46.3549C46.7123 23.3876 46.7123 23.3876 46.7123 23.7451V26.4856H62.9173C63.9897 26.4856 65.0621 26.2473 65.6578 25.7707V26.4856H70.7815C71.8539 26.4856 72.9262 26.3665 73.6412 25.8899C74.8327 25.1749 75.5476 23.8643 75.5476 22.3153C75.5476 21.4812 75.3093 20.6471 74.9519 20.0513ZM38.0141 21.9578H35.631V24.8175H31.8181L29.435 22.0769L26.9328 24.8175H19.0686V16.3576H27.0519L29.435 19.0981L31.9372 16.3576H38.2524C39.8014 16.3576 41.5887 16.8342 41.5887 19.0981C41.4696 21.4812 39.8014 21.9578 38.0141 21.9578ZM49.9295 21.4812C50.1678 21.8386 50.287 22.3152 50.287 23.0302V24.6983H48.2613V23.6259C48.2613 23.1493 48.2613 22.3153 47.9039 21.9578C47.6656 21.6003 47.189 21.6003 46.474 21.6003H44.3293V24.6983H42.3036V16.2384H46.8315C47.7847 16.2384 48.6188 16.2384 49.2146 16.5959C49.8103 16.9533 50.287 17.5491 50.287 18.5023C50.287 19.813 49.4529 20.5279 48.8571 20.7662C49.4529 21.0046 49.8103 21.2429 49.9295 21.4812ZM58.1511 18.0257H53.5041V19.5747H58.032V21.2429H53.5041V22.911H58.1511V24.6983H51.4785V16.2384H58.1511V18.0257ZM63.1556 24.6983H59.3427V22.911H63.1556C63.5131 22.911 63.7514 22.911 63.9897 22.6727C64.1088 22.5536 64.228 22.3152 64.228 22.0769C64.228 21.8386 64.1088 21.6003 63.9897 21.4812C63.8705 21.362 63.6322 21.2429 63.2748 21.2429C61.3683 21.1237 59.1044 21.2429 59.1044 18.6215C59.1044 17.4299 59.8193 16.1192 61.9641 16.1192H65.8961V18.1449H62.2024C61.8449 18.1449 61.6066 18.1449 61.3683 18.264C61.13 18.3832 61.13 18.6215 61.13 18.8598C61.13 19.2172 61.3683 19.3364 61.6066 19.4556C61.8449 19.5747 62.0832 19.5747 62.3215 19.5747H63.3939C64.4663 19.5747 65.1812 19.813 65.6578 20.2896C66.0153 20.6471 66.2536 21.2429 66.2536 22.0769C66.2536 23.8643 65.1812 24.6983 63.1556 24.6983ZM73.4029 23.8643C72.9262 24.3409 72.0922 24.6983 70.9006 24.6983H67.0877V22.911H70.9006C71.2581 22.911 71.4964 22.911 71.7347 22.6727C71.8539 22.5536 71.973 22.3152 71.973 22.0769C71.973 21.8386 71.8539 21.6003 71.7347 21.4812C71.6155 21.362 71.3772 21.2429 71.0198 21.2429C69.1133 21.1237 66.8494 21.2429 66.8494 18.6215C66.8494 17.4299 67.5643 16.1192 69.7091 16.1192H73.6412V18.1449H70.0665C69.7091 18.1449 69.4708 18.1449 69.2325 18.264C68.9942 18.3832 68.9942 18.6215 68.9942 18.8598C68.9942 19.2172 69.1133 19.3364 69.4708 19.4556C69.7091 19.5747 69.9474 19.5747 70.1857 19.5747H71.2581C72.3305 19.5747 73.0454 19.813 73.522 20.2896C73.6412 20.2896 73.6412 20.4088 73.6412 20.4088C73.9986 20.8854 74.1178 21.4812 74.1178 22.0769C74.1178 22.7919 73.8795 23.3876 73.4029 23.8643Z" fill="#0571C1"/>
<path d="M47.7845 18.2641C47.5462 18.145 47.1888 18.145 46.8313 18.145H44.4482V20.0514H46.8313C47.1888 20.0514 47.5462 20.0514 47.7845 19.9323C48.0229 19.8131 48.142 19.4557 48.142 19.0982C48.2612 18.6216 48.0229 18.3833 47.7845 18.2641Z" fill="#228FE0"/>
<path d="M39.4437 3.96559C39.2054 3.84643 38.848 3.84644 38.4905 3.84644H36.1074V5.7529H38.4905C38.848 5.7529 39.2054 5.7529 39.4437 5.63375C39.682 5.51459 39.8012 5.15713 39.8012 4.79967C39.9203 4.32305 39.682 4.08474 39.4437 3.96559Z" fill="#228FE0"/>
<path d="M53.8613 6.82521H56.6019L55.2912 3.48889L53.8613 6.82521Z" fill="#228FE0"/>
<path d="M33.6048 23.9834V17.1917L30.5068 20.528L33.6048 23.9834Z" fill="#228FE0"/>
<path d="M38.1331 18.0258H35.6309V20.1705H38.2522C38.9672 20.1705 39.4438 19.8131 39.4438 19.0981C39.3246 18.3832 38.848 18.0258 38.1331 18.0258Z" fill="#228FE0"/>
<path d="M47.7845 18.2641C47.5462 18.1449 47.1888 18.1449 46.8313 18.1449H44.4482V20.0514H46.8313C47.1888 20.0514 47.5462 20.0514 47.7845 19.9322C48.0229 19.8131 48.142 19.4556 48.142 19.0981C48.2612 18.6215 48.0229 18.3832 47.7845 18.2641Z" fill="#228FE0"/>
<path d="M37.2992 24.46L35.631 22.6727V24.6983H31.6989L29.3158 21.9577L26.6944 24.6983H18.8303V16.3575H26.8136L29.3158 19.098L30.5074 17.6682L27.5285 14.6893H17.043V26.3664H27.5285L29.3158 24.5791L30.8648 26.3664H37.2992V24.46Z" fill="#2FABF7"/>
<path d="M24.9071 12.068L23.3581 10.3998H22.6431V9.68489L20.8558 7.89758L19.6643 10.3998H17.9961L15.1364 3.84634V10.3998H11.0852L10.2511 8.6125H6.19986L5.36579 10.3998H3.22101L6.79563 2.05903H9.77449L13.1108 10.0423V2.05903H14.8981L13.23 0.390869H11.4426V1.82072L10.8469 0.390869H5.60409L3.22101 5.99111L0.480469 12.068H3.22101H6.67648L7.39141 10.2807H9.05956L9.89364 12.068H16.5663V10.6381L17.162 12.068H20.6175L21.2133 10.6381V12.068H24.9071Z" fill="#2FABF7"/>
<path d="M19.426 6.58689L17.5195 4.68042L18.9494 7.77843L19.426 6.58689Z" fill="#2FABF7"/>
<path d="M73.6401 25.7707C74.7125 25.0558 75.4274 23.8642 75.5465 22.5535L73.8784 20.8854C73.9975 21.2428 74.1167 21.6003 74.1167 22.0769C74.1167 22.7918 73.8784 23.3876 73.4018 23.8642C72.9251 24.3408 72.0911 24.6983 70.8995 24.6983H67.0866V22.911H70.8995C71.257 22.911 71.4953 22.911 71.7336 22.6727C71.8528 22.5535 71.9719 22.3152 71.9719 22.0769C71.9719 21.8386 71.8528 21.6003 71.7336 21.4812C71.6144 21.362 71.3761 21.2428 71.0187 21.2428C69.1122 21.1237 66.8483 21.2428 66.8483 18.6215C66.8483 17.4299 67.5632 16.3575 69.3505 16.1192L68.0398 14.8085C67.8015 14.9277 67.6824 15.0468 67.5632 15.0468V14.3319H62.0821C61.248 14.3319 60.1757 14.5702 59.699 15.0468V14.3319H49.9284V15.0468C49.2135 14.4511 47.9028 14.3319 47.307 14.3319H40.8727V15.0468C40.2769 14.4511 38.8471 14.3319 38.1322 14.3319H30.9829L29.3148 16.1192L27.7658 14.3319H26.4551L30.0297 17.9065L31.817 16.0001H38.1322C39.6812 16.0001 41.4685 16.4767 41.4685 18.7406C41.4685 21.1237 39.8003 21.6003 38.013 21.6003H35.6299V23.3876L37.4172 25.1749V23.3876H38.013C38.8471 23.3876 39.9195 23.3876 40.7536 23.0302V26.2473H46.1155V23.1493H46.3538C46.7113 23.1493 46.7113 23.1493 46.7113 23.5068V26.2473H62.9162C63.9886 26.2473 65.061 26.009 65.6567 25.5324V26.2473H70.7804C71.7336 26.3665 72.806 26.2473 73.6401 25.7707ZM49.9284 21.4812C50.1667 21.8386 50.2859 22.3152 50.2859 23.0302V24.6983H48.2603V23.6259C48.2603 23.1493 48.2603 22.3152 47.9028 21.9578C47.6645 21.6003 47.1879 21.6003 46.4729 21.6003H44.3282V24.6983H42.3026V16.2384H46.8304C47.7836 16.2384 48.6177 16.2384 49.2135 16.5958C49.8093 16.9533 50.2859 17.5491 50.2859 18.5023C50.2859 19.813 49.4518 20.5279 48.856 20.7662C49.4518 21.0045 49.8093 21.2428 49.9284 21.4812ZM58.15 18.0257H53.503V19.5747H58.0309V21.2428H53.503V22.911H58.15V24.6983H51.4774V16.2384H58.15V18.0257ZM63.1545 24.6983H59.3416V22.911H63.1545C63.512 22.911 63.7503 22.911 63.9886 22.6727C64.1077 22.5535 64.2269 22.3152 64.2269 22.0769C64.2269 21.8386 64.1077 21.6003 63.9886 21.4812C63.8694 21.362 63.6311 21.2428 63.2737 21.2428C61.3672 21.1237 59.1033 21.2428 59.1033 18.6215C59.1033 17.4299 59.8182 16.1192 61.963 16.1192H65.8951V18.1448H62.2013C61.8438 18.1448 61.6055 18.1448 61.3672 18.264C61.1289 18.3831 61.1289 18.6215 61.1289 18.8598C61.1289 19.2172 61.3672 19.3364 61.6055 19.4555C61.8438 19.5747 62.0821 19.5747 62.3204 19.5747H63.3928C64.4652 19.5747 65.1801 19.813 65.6567 20.2896C66.0142 20.6471 66.2525 21.2428 66.2525 22.0769C66.2525 23.8642 65.1801 24.6983 63.1545 24.6983Z" fill="#228FE0"/>
<path d="M68.874 18.8598C68.874 19.2173 68.9932 19.3364 69.3506 19.4556C69.5889 19.5747 69.8273 19.5748 70.0656 19.5748H71.1379C71.8529 19.5748 72.3295 19.6939 72.8061 19.9322L71.0188 18.1449H69.9464C69.5889 18.1449 69.3506 18.1449 69.1123 18.2641C68.9932 18.3832 68.874 18.6215 68.874 18.8598Z" fill="#228FE0"/>
<path d="M64.7041 11.7106L64.9424 12.068H65.0616L64.7041 11.7106Z" fill="#228FE0"/>
<path d="M58.1504 5.1571L60.176 10.0424V7.18273L58.1504 5.1571Z" fill="#228FE0"/>
<path d="M37.7753 9.08923H38.0136C38.252 9.08923 38.252 9.08923 38.252 9.44669V12.0681H46.8311V11.3532C47.546 11.7106 48.6184 12.0681 50.0482 12.0681H53.6228L54.3378 10.1616H56.0059L56.7208 12.0681H63.6318V10.8765L61.9636 9.20838V10.5191H57.9124L57.3166 8.61261H53.1462L52.4313 10.5191H50.1674C49.2141 10.5191 48.0226 10.2808 47.3077 9.56584C46.5927 8.85092 46.2353 7.89768 46.2353 6.34868C46.2353 5.15714 46.4736 3.9656 47.3077 3.01237C47.9034 2.29744 48.9758 2.05914 50.2865 2.05914H52.193V3.84645H50.2865C49.5716 3.84645 49.2141 3.9656 48.7375 4.32306C48.3801 4.68053 48.1417 5.39545 48.1417 6.22953C48.1417 7.18276 48.2609 7.77853 48.7375 8.25515C49.095 8.61261 49.5716 8.73176 50.1674 8.73176H51.0014L53.742 2.17829H54.9335L53.2654 0.510132H50.1674C48.8567 0.510132 47.7843 0.74844 46.8311 1.22506V0.510132H41.5883V1.22506C40.9925 0.74844 40.2776 0.510132 39.3243 0.510132H20.1405L18.8298 3.48898L17.5191 0.510132H12.2764L13.9445 2.17829H16.3276L18.3532 6.58699L19.0682 7.30192L21.2129 2.05914H24.5492V10.5191H22.5236V3.9656L20.498 8.73176L23.9535 12.1872H37.6562L37.7753 9.08923ZM43.2564 2.05914H45.282V10.5191H43.2564V2.05914ZM32.7709 3.84645H28.1239V5.39545H32.6517V7.06361H28.1239V8.73176H32.7709V10.5191H26.0982V2.05914H32.7709V3.84645ZM36.1072 10.3999H34.0816V1.93998H38.6094C39.6818 1.93998 40.3967 1.93998 40.9925 2.29744C41.5883 2.65491 41.9457 3.25068 41.9457 4.20391C41.9457 5.5146 41.1117 6.22953 40.5159 6.46784C40.9925 6.58699 41.35 6.94445 41.4691 7.18276C41.7074 7.65938 41.8266 8.01684 41.8266 8.73176V10.3999H39.801V9.32753C39.801 8.85092 39.801 8.13599 39.4435 7.65938C39.3243 7.42107 38.9669 7.42107 38.252 7.42107H36.1072V10.3999Z" fill="#228FE0"/>
</svg>
