<svg width="73" height="21" viewBox="0 0 73 21" fill="none" xmlns="http://www.w3.org/2000/svg">
<path d="M56.5637 3.57103C54.785 3.57103 53.362 4.04536 52.1762 4.28253L51.8204 7.00992C52.4133 6.77275 54.0735 6.29842 55.4965 6.17984C56.9194 6.17984 57.7495 6.41701 57.5124 7.72141C53.2434 7.72141 50.3974 8.55148 49.8045 11.3975C48.9744 16.1407 54.1921 16.2593 56.208 14.1248L55.9708 15.4292H59.7654L61.4256 7.72141C62.0185 4.51969 59.1725 3.45245 56.5637 3.57103ZM56.8009 11.516C56.5637 12.4647 55.7336 12.8204 54.785 12.939C53.9549 12.939 53.2434 12.4647 53.7177 11.516C54.1921 10.8045 55.2593 10.8045 56.0894 10.8045C56.3265 10.8045 56.6823 10.8045 57.038 10.8045C56.9194 10.686 56.8009 11.1603 56.8009 11.516Z" fill="#32A6CE"/>
<path d="M51.8204 7.01C52.4133 6.77284 54.0735 6.29851 55.4965 6.17992C56.9195 6.17992 57.7495 6.41709 57.5124 7.72149C53.2434 7.72149 50.3974 8.55157 49.8045 11.3975C48.9744 16.1408 54.1921 16.2594 56.208 14.1249L55.9708 15.4293H59.7654L61.4256 7.72149C62.1371 4.51977 59.1725 3.6897 56.5637 3.6897L51.8204 7.01ZM56.8009 11.5161C56.5637 12.4648 55.7336 12.8205 54.785 12.9391C53.9549 12.9391 53.2434 12.4648 53.7177 11.5161C54.1921 10.8046 55.2593 10.8046 56.0894 10.8046C56.3265 10.8046 56.6823 10.8046 57.038 10.8046C56.9195 10.686 56.8009 11.1604 56.8009 11.5161Z" fill="#1A80AD"/>
<path d="M64.6271 0.0136108L61.5439 15.4293H65.3386L68.5403 0.0136108H64.6271Z" fill="#32A6CE"/>
<path d="M67.3545 0.0136108L61.5439 15.4293H65.3386L68.5403 0.0136108H64.6271H67.3545Z" fill="#1A80AD"/>
<path d="M46.9584 0.0136108H39.962L36.8789 15.4293H41.0293L42.0965 10.686H45.0611C47.907 10.686 50.2787 9.02586 50.8716 6.0613C51.4645 2.62242 48.9743 0.0136108 46.9584 0.0136108ZM46.8398 5.34981C46.6026 6.41705 45.5354 7.12854 44.4682 7.12854H42.5709L43.4009 3.57108H45.4168C46.4841 3.57108 47.077 4.28257 46.8398 5.34981Z" fill="#32A6CE"/>
<path d="M46.9588 0.0136108H42.2155L36.7607 15.4293H40.9111L41.9784 10.686H44.9429C47.7889 10.686 50.1605 9.02586 50.7534 6.0613C51.4649 2.62242 48.9747 0.0136108 46.9588 0.0136108ZM46.8402 5.34981C46.6031 6.41705 45.5358 7.12854 44.4686 7.12854H42.5713L43.4013 3.57108H45.4172C46.4845 3.57108 47.0774 4.28257 46.8402 5.34981Z" fill="#1A80AD"/>
<path d="M19.5657 3.57103C17.7869 3.57103 16.364 4.04536 15.2967 4.28253L14.941 7.00992C15.4153 6.77275 17.194 6.29842 18.617 6.17984C20.04 6.17984 20.8701 6.41701 20.6329 7.72141C16.4825 7.72141 13.6366 8.55148 13.0437 11.3975C12.2136 16.1407 17.3126 16.2593 19.3285 14.1248L19.0913 15.4292H22.886L24.5461 7.72141C25.139 4.51969 22.1745 3.45245 19.5657 3.57103ZM19.9214 11.516C19.6843 12.4647 18.8542 12.8204 17.9055 12.939C17.0754 12.939 16.364 12.4647 16.9569 11.516C17.4312 10.8045 18.4984 10.8045 19.2099 10.8045C19.5657 10.8045 19.8028 10.8045 20.1586 10.8045C20.04 10.686 19.9214 11.1603 19.9214 11.516Z" fill="#21789E"/>
<path d="M15.0601 7.01C15.5344 6.77284 17.3132 6.29851 18.7362 6.17992C20.1591 6.17992 20.9892 6.41709 20.7521 7.72149C16.6017 7.72149 13.7557 8.55157 13.1628 11.3975C12.3327 16.1408 17.4318 16.2594 19.4476 14.1249L19.0919 15.4293H22.8865L24.5467 7.72149C25.2582 4.51977 22.2936 3.6897 19.6848 3.6897L15.0601 7.01ZM19.922 11.5161C19.6848 12.4648 18.8547 12.8205 17.9061 12.9391C17.076 12.9391 16.3645 12.4648 16.9574 11.5161C17.4318 10.8046 18.499 10.8046 19.2105 10.8046C19.5662 10.8046 19.8034 10.8046 20.1591 10.8046C20.0406 10.686 19.922 11.1604 19.922 11.5161Z" fill="#1A5B80"/>
<path d="M26.0882 3.57104H29.8828L30.4757 10.2117L34.2703 3.57104H38.1836L29.1713 20.1726H24.9023L27.6297 15.1921L26.0882 3.57104Z" fill="#21789E"/>
<path d="M29.8828 3.80821L30.4757 10.3302L34.2703 3.57104H38.1836L29.1713 20.1726H24.9023L27.6297 15.3107" fill="#1A5B80"/>
<path d="M10.1981 0.0136108H3.08314L0 15.4293H4.15038L5.21762 10.686H8.18217C11.0281 10.686 13.3998 9.02586 13.9927 6.0613C14.7042 2.62242 12.214 0.0136108 10.1981 0.0136108ZM10.0795 5.34981C9.84232 6.41705 8.77508 7.12854 7.70784 7.12854H5.81053L6.6406 3.57108H8.6565C9.72374 3.57108 10.3167 4.28257 10.0795 5.34981Z" fill="#21789E"/>
<path d="M10.1981 0.0136108H6.99635L0 15.4293H4.15038L5.21762 10.686H8.18217C11.0281 10.686 13.3998 9.02586 13.9927 6.0613C14.7042 2.62242 12.214 0.0136108 10.1981 0.0136108ZM10.0795 5.34981C9.84232 6.41705 8.77508 7.12854 7.70784 7.12854H5.81053L6.6406 3.57108H8.6565C9.72374 3.57108 10.3167 4.28257 10.0795 5.34981Z" fill="#1A5B80"/>
<path d="M18.8542 7.72144C15.6525 7.9586 13.518 8.90726 13.0437 11.2789C12.2136 16.0222 17.3126 16.1408 19.3285 14.0063L19.0913 15.4293H22.886L23.4789 12.5833L18.8542 7.72144ZM19.9214 11.5161C19.6843 12.4647 18.8542 12.8205 17.9055 12.9391C17.0754 12.9391 16.364 12.4647 16.9569 11.5161C17.4312 10.8046 18.4984 10.8046 19.2099 10.8046C19.5657 10.8046 19.8028 10.8046 20.1586 10.8046C20.04 10.686 19.9214 11.1603 19.9214 11.5161Z" fill="#06435E"/>
<path d="M30.7127 10.0931L30.4756 10.4488L32.9658 12.8205L38.1834 3.57104H34.2702L30.7127 10.0931Z" fill="#06435E"/>
<path d="M4.1501 15.4292L5.21734 10.6859L0.355469 15.4292H4.1501Z" fill="#06435E"/>
<path d="M40.9109 15.4293L41.9781 10.4489V10.5674L37.1162 15.4293H40.9109Z" fill="#2273AA"/>
<path d="M55.7332 7.72144C52.5315 7.9586 50.397 8.90726 49.9227 11.2789C49.0926 16.0222 54.3102 16.1408 56.3261 14.0063L55.9704 15.4293H59.765L60.3579 12.5833L55.7332 7.72144ZM56.8005 11.5161C56.5633 12.4647 55.7332 12.8205 54.7846 12.9391C53.9545 12.9391 53.243 12.4647 53.7173 11.5161C54.1916 10.8046 55.2589 10.8046 56.089 10.8046C56.3261 10.8046 56.6819 10.8046 57.0376 10.8046C56.919 10.686 56.8005 11.1603 56.8005 11.5161Z" fill="#2273AA"/>
<path d="M64.2723 8.43298L61.5449 15.4293H65.3395L66.4068 10.686L64.2723 8.43298Z" fill="#2273AA"/>
<path d="M69.3703 2.50376V0.843611H68.7773V0.606445H70.3189V0.843611H69.726V2.50376H69.3703Z" fill="#32A6CE"/>
<path d="M70.5566 2.50381V0.606496H70.9124L71.3867 1.9109C71.3867 2.02948 71.5053 2.14807 71.5053 2.14807C71.5053 2.02949 71.5053 2.02948 71.6239 1.79232L72.0982 0.487915H72.454V2.38523H72.2168V0.725078L71.6239 2.38523H71.2681L70.6752 0.725078V2.38523H70.5566V2.50381Z" fill="#32A6CE"/>
</svg>
