<svg width="45" height="27" viewBox="0 0 45 27" fill="none" xmlns="http://www.w3.org/2000/svg">
<path d="M22.3805 23.4209C25.0495 21.0117 26.7337 17.5137 26.7337 13.6285C26.7337 9.74236 25.0489 6.24629 22.3805 3.81041C20.0483 1.68663 16.9413 0.390869 13.5213 0.390869C6.2171 0.390869 0.283203 6.32373 0.283203 13.628C0.283203 20.9342 6.2171 26.84 13.5213 26.84C16.9414 26.8405 20.0483 25.5457 22.3805 23.4209Z" fill="#009DDD"/>
<path d="M22.3809 23.4211C25.0498 21.0119 26.7341 17.5138 26.7341 13.6286C26.7341 9.74249 25.0493 6.24642 22.3809 3.81055V23.4211Z" fill="#009DDD"/>
<path d="M31.2679 0.391357C27.8475 0.391357 24.7384 1.68712 22.3812 3.8109C21.9155 4.25094 21.4756 4.71752 21.0598 5.21078H23.7277C24.0911 5.64978 24.4279 6.14304 24.7384 6.60872H20.0489C19.7649 7.07531 19.5057 7.54241 19.2717 8.0077H25.4895C25.6979 8.47337 25.9038 8.94138 26.0593 9.40706H18.73C18.5739 9.87325 18.444 10.3407 18.3408 10.8317H26.4485C26.6293 11.7127 26.7344 12.6716 26.7344 13.629C26.7344 15.0798 26.4999 16.5053 26.0595 17.8262H18.7301C18.8842 18.2918 19.0659 18.7589 19.2723 19.2251H25.4902C25.2576 19.6917 25.0236 20.1836 24.7386 20.6241H20.049C20.3615 21.1165 20.6974 21.5825 21.0598 22.0231H23.7277C23.314 22.5154 22.8729 22.982 22.3812 23.4221C24.7386 25.5469 27.8475 26.8416 31.2679 26.8416C38.5731 26.8416 44.4799 20.9358 44.4799 13.6296C44.4792 6.32434 38.5731 0.391357 31.2679 0.391357Z" fill="#ED1C2E"/>
<path d="M39.918 16.4784C39.918 16.2447 40.1263 16.0641 40.3589 16.0641C40.5925 16.0641 40.7732 16.2449 40.7732 16.4784C40.7732 16.7124 40.5924 16.9193 40.3589 16.9193C40.1263 16.9193 39.918 16.7124 39.918 16.4784ZM40.3589 16.8156C40.5397 16.8156 40.6695 16.66 40.6695 16.4784C40.6695 16.2972 40.5396 16.1673 40.3589 16.1673C40.1772 16.1673 40.0231 16.2972 40.0231 16.4784C40.0231 16.66 40.1772 16.8156 40.3589 16.8156ZM40.307 16.66H40.2038V16.2971H40.3588C40.4097 16.2971 40.4364 16.2971 40.4629 16.3232C40.4885 16.3489 40.5138 16.3741 40.5138 16.4008C40.5138 16.4531 40.4882 16.5049 40.4362 16.5049L40.5138 16.6599H40.4097L40.3588 16.53H40.307V16.66ZM40.307 16.4531H40.3588C40.3588 16.4531 40.3844 16.4531 40.4097 16.4531C40.4097 16.4531 40.4097 16.4264 40.4097 16.4008V16.3741C40.384 16.3741 40.3588 16.3741 40.3331 16.3741H40.3065V16.4531H40.307Z" fill="white"/>
<path d="M11.8633 16.9192H10.2061L11.1902 11.7639L8.937 16.9192H7.433L7.17465 11.7896L6.19059 16.9192H4.6875L5.95749 10.21H8.54695L8.67632 14.3539L10.492 10.21H13.1575L11.8633 16.9192Z" fill="white"/>
<path d="M30.2569 16.8422C29.7903 16.9707 29.4535 17.0225 29.0643 17.0225C28.2362 17.0225 27.7686 16.6082 27.7686 15.8318C27.7686 15.6758 27.7952 15.5198 27.8204 15.3386L27.9236 14.7944L28.0031 14.3807L28.7537 10.2106H30.3852L30.1531 11.453H31.0069L30.7743 12.7753H29.9197L29.5054 15.0542C29.4787 15.1579 29.4536 15.2359 29.4536 15.2873C29.4536 15.5727 29.6353 15.7011 30.0244 15.7011C30.2052 15.7011 30.3593 15.6754 30.4645 15.6496L30.2569 16.8422Z" fill="white"/>
<path d="M35.0488 11.5059C34.919 11.453 34.8938 11.453 34.8681 11.453C34.7896 11.4263 34.7382 11.4263 34.7382 11.4016C34.6853 11.4016 34.6341 11.4016 34.5574 11.4016C34.0122 11.4016 33.6241 11.6347 33.1314 12.2816L33.2864 11.453H31.7833L30.7734 16.9193H32.4315C33.0271 13.5763 33.2606 12.9812 34.0631 12.9812C34.1149 12.9812 34.1939 13.0074 34.2706 13.0074L34.4522 13.0588L35.0488 11.5059Z" fill="white"/>
<path d="M23.7271 13.1882C23.7271 13.8622 24.1162 14.354 24.9971 14.6918C25.6711 14.9758 25.7748 15.0542 25.7748 15.3135C25.7748 15.6498 25.4633 15.8059 24.8159 15.8059C24.3235 15.8059 23.8564 15.7279 23.3128 15.5733L23.1055 16.8428H23.1839L23.4679 16.9198C23.5711 16.9198 23.7262 16.946 23.908 16.946C24.2971 16.9969 24.6082 16.9969 24.8413 16.9969C26.5769 16.9969 27.406 16.4271 27.406 15.1841C27.406 14.4325 27.0692 13.9926 26.2145 13.6558C25.5143 13.3965 25.4372 13.319 25.4372 13.0598C25.4372 12.7758 25.7221 12.6198 26.2663 12.6198C26.5768 12.6198 27.0425 12.6465 27.4569 12.6968L27.6905 11.4539C27.2505 11.3774 26.6031 11.3507 26.2397 11.3507C24.3753 11.3498 23.7271 12.1783 23.7271 13.1882Z" fill="white"/>
<path d="M17.2003 16.9192H15.8528L15.8795 16.3484C15.4652 16.7893 14.8953 16.9963 14.1438 16.9963C13.2638 16.9963 12.6416 16.4007 12.6416 15.5199C12.6416 14.1979 13.7023 13.4212 15.5431 13.4212C15.7229 13.4212 15.9569 13.4212 16.2162 13.4479C16.268 13.2667 16.268 13.1881 16.268 13.111C16.268 12.7486 15.982 12.6187 15.2053 12.6187C14.7387 12.6187 14.2221 12.6705 13.8588 12.7486L13.6262 12.8265L13.4701 12.8518L13.7027 11.6346C14.5328 11.4263 15.0503 11.3497 15.6729 11.3497C17.0965 11.3497 17.8225 11.893 17.8225 12.9288C17.8225 13.2143 17.7968 13.4216 17.6936 14.0177L17.3568 15.9608L17.305 16.2971L17.2521 16.583L17.2265 16.7633L17.2003 16.9192ZM16.0088 14.4833C15.8261 14.4577 15.7496 14.4577 15.6464 14.4577C14.7131 14.4577 14.2474 14.7426 14.2474 15.2873C14.2474 15.6236 14.4538 15.8571 14.8163 15.8571C15.4914 15.8571 15.9827 15.2873 16.0088 14.4833Z" fill="white"/>
<path d="M22.614 16.7893C22.0451 16.9448 21.5009 17.0219 20.9301 17.0219C19.0932 17.0219 18.1328 16.1667 18.1328 14.5608C18.1328 12.6952 19.351 11.3225 21.0091 11.3225C22.3556 11.3225 23.2124 12.0998 23.2124 13.2913C23.2124 13.705 23.1596 14.0956 23.0307 14.6388H19.7391C19.7391 14.7421 19.7391 14.7677 19.7391 14.8205C19.7391 15.4423 20.2057 15.7786 21.1642 15.7786C21.7602 15.7786 22.304 15.6754 22.8732 15.4428L22.614 16.7893ZM21.734 13.552C21.734 13.4478 21.734 13.3436 21.734 13.2665C21.734 12.8265 21.4481 12.5663 20.9568 12.5663C20.4383 12.5663 20.0758 12.9288 19.9194 13.552H21.734Z" fill="white"/>
<path d="M40.1777 14.432C39.9184 16.2442 38.6493 17.0476 36.9645 17.0476C35.1266 17.0476 34.376 15.9345 34.376 14.5357C34.376 12.6183 35.644 11.2959 37.6128 11.2959C39.3228 11.2959 40.2295 12.3842 40.2295 13.7574C40.23 14.0962 40.23 14.1214 40.1777 14.432ZM38.4685 13.7318C38.4685 13.162 38.2349 12.6454 37.5629 12.6454C36.7319 12.6454 36.2145 13.6286 36.2145 14.5099C36.2145 15.2358 36.5778 15.7276 37.1478 15.7276C37.5102 15.7276 38.2875 15.2358 38.4169 14.4067C38.4685 14.1985 38.4685 13.9663 38.4685 13.7318Z" fill="white"/>
</svg>
