<svg width="787" height="188" viewBox="0 0 787 188" fill="none" xmlns="http://www.w3.org/2000/svg">
<path d="M46.3845 131.761H33.7201C33.1008 131.71 32.4827 131.869 31.9906 132.204C31.5122 132.659 31.1842 133.221 31.0422 133.829H29.6474V123.442H30.819C30.9583 124.051 31.2867 124.613 31.7675 125.067C32.2644 125.394 32.8787 125.551 33.497 125.51H57.5426V126.543C56.8538 126.669 56.217 126.958 55.7015 127.38C55.326 127.817 55.1471 128.36 55.1994 128.906V138.21C55.1524 138.756 55.3307 139.298 55.7015 139.736C56.2136 140.162 56.8518 140.453 57.5426 140.573V141.41C49.1325 145.955 39.5073 148.452 29.6474 148.646C22.5759 148.979 15.5766 147.25 9.7303 143.723C6.57104 141.668 4.03318 138.959 2.34032 135.834C0.647467 132.709 -0.148424 129.265 0.0227801 125.805C-0.125882 122.54 0.593984 119.291 2.12471 116.316C3.65543 113.341 5.95447 110.724 8.83765 108.674C15.0526 104.457 22.7652 102.328 30.5959 102.668C33.3306 102.651 36.06 102.882 38.7413 103.358C41.7097 103.937 44.6202 104.728 47.4445 105.72C48.5725 106.184 49.7784 106.484 51.0151 106.607C51.6872 106.544 52.316 106.284 52.8004 105.868L53.8604 106.36L47.9467 116.993L46.8866 116.501C46.9008 115.977 46.7866 115.457 46.5519 114.975C46.1912 114.526 45.7367 114.142 45.2129 113.843C43.2122 112.645 40.9816 111.778 38.6297 111.283C35.9602 110.618 33.2022 110.271 30.4285 110.249C25.6661 110.086 21.0013 111.47 17.3178 114.138C15.4149 115.573 13.9008 117.365 12.887 119.384C11.8732 121.404 11.3855 123.598 11.4598 125.805C11.3661 127.941 11.819 130.068 12.7848 132.028C13.7507 133.988 15.2047 135.731 17.0388 137.127C20.9271 139.895 25.8281 141.313 30.819 141.114C33.5803 141.118 36.3327 140.837 39.0202 140.278C41.5988 139.781 44.0803 138.952 46.3845 137.816V131.761Z" fill="#1D1D1B"/>
<path d="M77.5151 132.253V141.114H103.737C104.354 141.147 104.965 140.991 105.466 140.671C105.954 140.222 106.284 139.658 106.414 139.047H107.753V149.827H106.693C106.546 149.135 106.132 148.509 105.522 148.055C105.013 147.707 104.379 147.532 103.737 147.563H65.2412V146.628C65.9374 146.521 66.5799 146.229 67.0823 145.791C67.4768 145.342 67.6749 144.783 67.6402 144.215V114.581C67.6872 114.035 67.5089 113.493 67.1381 113.055C66.6258 112.619 65.9898 112.313 65.297 112.169V111.234H102.621C103.256 111.274 103.888 111.117 104.406 110.791C104.892 110.34 105.221 109.776 105.354 109.166H106.359V119.947H105.354C105.183 119.407 104.857 118.915 104.406 118.519C103.888 118.192 103.256 118.036 102.621 118.076H77.5151V125.903H93.0806C93.6978 125.936 94.3088 125.779 94.8101 125.46C95.3041 125.008 95.651 124.447 95.8143 123.836H96.5954V134.37H95.5911C95.4519 133.761 95.1235 133.199 94.6427 132.746C94.1264 132.415 93.4933 132.258 92.8574 132.303L77.5151 132.253Z" fill="#1D1D1B"/>
<path d="M125.105 123.688V144.363C125.07 144.93 125.268 145.489 125.663 145.938C126.168 146.382 126.807 146.69 127.504 146.824V147.759H113.724V146.824C114.42 146.718 115.062 146.426 115.565 145.987C115.959 145.538 116.157 144.979 116.123 144.412V114.581C116.17 114.035 115.991 113.493 115.621 113.055C115.108 112.619 114.472 112.313 113.779 112.168V111.233H129.624V112.168C128.564 112.168 128.006 112.808 128.006 113.448C128.121 114.165 128.54 114.815 129.178 115.27L151.494 134.665V114.581C151.531 114.036 151.354 113.497 150.992 113.055C150.481 112.626 149.842 112.335 149.15 112.218V111.282H162.875V112.218C162.182 112.333 161.542 112.624 161.034 113.055C160.668 113.495 160.49 114.036 160.532 114.581V144.363C160.49 144.908 160.668 145.448 161.034 145.889C161.543 146.329 162.18 146.636 162.875 146.775V147.71H147.867V146.775C148.927 146.775 149.485 146.184 149.485 145.593C149.462 145.246 149.304 144.916 149.039 144.658L146.807 142.788L125.105 123.688Z" fill="#1D1D1B"/>
<path d="M213.252 114.581V133.877C213.621 137.365 212.573 140.854 210.295 143.723C207.134 147.005 201.164 148.645 192.387 148.645C187.502 148.825 182.636 148.016 178.16 146.283C175.645 145.345 173.644 143.579 172.581 141.36C171.611 139.012 171.157 136.523 171.242 134.025V114.581C171.289 114.035 171.111 113.493 170.74 113.055C170.228 112.619 169.592 112.313 168.899 112.168V111.233H183.516V112.168C182.824 112.286 182.185 112.577 181.675 113.005C181.313 113.448 181.135 113.987 181.173 114.531V132.056C181.084 133.715 181.291 135.376 181.786 136.979C182.177 138.031 182.916 138.957 183.907 139.637C186.55 141.019 189.565 141.748 192.638 141.748C195.71 141.748 198.726 141.019 201.369 139.637C202.339 138.95 203.057 138.025 203.433 136.979C203.921 135.375 204.128 133.715 204.047 132.056V114.581C204.089 114.036 203.911 113.495 203.545 113.055C203.036 112.615 202.398 112.308 201.704 112.168V111.233H215.484V112.168C214.792 112.286 214.153 112.577 213.643 113.005C213.307 113.474 213.169 114.031 213.252 114.581V114.581Z" fill="#1D1D1B"/>
<path d="M234.341 114.581V144.363C234.299 144.908 234.477 145.448 234.843 145.889C235.352 146.329 235.99 146.636 236.684 146.775V147.71H222.067V146.775C222.764 146.668 223.406 146.376 223.908 145.938C224.303 145.489 224.501 144.93 224.466 144.363V114.581C224.513 114.035 224.335 113.493 223.964 113.055C223.452 112.619 222.816 112.313 222.123 112.168V111.233H236.74V112.168C236.047 112.284 235.408 112.574 234.899 113.005C234.5 113.452 234.301 114.013 234.341 114.581V114.581Z" fill="#1D1D1B"/>
<path d="M255.317 123.688V144.363C255.282 144.93 255.48 145.489 255.875 145.938C256.38 146.382 257.019 146.69 257.716 146.824V147.759H243.936V146.824C244.632 146.718 245.274 146.426 245.777 145.987C246.171 145.538 246.369 144.979 246.335 144.412V114.581C246.382 114.035 246.203 113.493 245.832 113.055C245.32 112.619 244.684 112.313 243.991 112.168V111.233H259.836V112.168C258.776 112.168 258.218 112.808 258.218 113.448C258.333 114.165 258.752 114.815 259.389 115.27L281.706 134.665V114.581C281.743 114.036 281.565 113.497 281.203 113.055C280.693 112.626 280.054 112.335 279.362 112.218V111.282H293.087V112.218C292.394 112.333 291.754 112.624 291.246 113.055C290.879 113.495 290.702 114.036 290.744 114.581V144.363C290.702 144.908 290.879 145.448 291.246 145.889C291.755 146.329 292.392 146.636 293.087 146.775V147.71H278.135V146.775C279.195 146.775 279.753 146.184 279.753 145.593C279.729 145.246 279.572 144.916 279.307 144.658L277.298 142.738L255.317 123.688Z" fill="#1D1D1B"/>
<path d="M312.391 132.253V141.114H338.612C339.23 141.147 339.841 140.991 340.342 140.671C340.83 140.222 341.16 139.658 341.29 139.047H342.35V149.827H341.29C341.219 149.167 340.906 148.545 340.398 148.055C339.889 147.707 339.255 147.532 338.612 147.563H300.117V146.628C300.813 146.521 301.456 146.229 301.958 145.791C302.353 145.342 302.551 144.783 302.516 144.215V114.581C302.563 114.035 302.385 113.493 302.014 113.055C301.502 112.619 300.866 112.313 300.173 112.169V111.234H337.497C338.132 111.274 338.764 111.117 339.282 110.791C339.768 110.34 340.097 109.776 340.23 109.166H341.235V119.947H340.23C340.059 119.407 339.732 118.915 339.282 118.519C338.764 118.192 338.132 118.036 337.497 118.076H312.391V125.903H327.957C328.574 125.936 329.185 125.779 329.686 125.46C330.18 125.008 330.527 124.447 330.69 123.836H331.694V134.37H330.913C330.774 133.761 330.446 133.199 329.965 132.746C329.449 132.415 328.816 132.258 328.18 132.303L312.391 132.253Z" fill="#1D1D1B"/>
<path d="M405.338 136.388H382.464L379.061 142.64C378.656 143.276 378.409 143.981 378.335 144.707C378.335 145.659 379.154 146.316 380.79 146.677V147.71H364.388V146.677C365.211 146.57 365.984 146.263 366.619 145.79C367.374 145.033 367.978 144.167 368.405 143.231L386.704 109.067C387.207 108.263 387.511 107.374 387.596 106.458C387.596 105.474 386.89 104.752 385.476 104.292V103.259H403.441V104.292C401.99 104.637 401.265 105.326 401.265 106.212C401.313 106.974 401.562 107.715 401.99 108.378L421.182 142.837C421.714 143.911 422.429 144.907 423.302 145.79C423.987 146.342 424.841 146.701 425.757 146.824V147.858H407.067V146.824C408.704 146.594 409.522 145.922 409.522 144.806C409.532 144.061 409.361 143.322 409.02 142.64L405.338 136.388ZM402.158 130.284L394.012 114.482L385.7 130.333L402.158 130.284Z" fill="#1D1D1B"/>
<path d="M441.212 141.114H464.365C465.001 141.158 465.634 141.001 466.15 140.671C466.649 140.222 466.997 139.659 467.155 139.046H468.159V149.827H467.155C467.021 149.217 466.692 148.653 466.206 148.202C465.688 147.876 465.056 147.719 464.421 147.759H428.994V146.824C429.69 146.718 430.333 146.426 430.835 145.987C431.23 145.538 431.428 144.979 431.393 144.412V114.581C431.44 114.035 431.262 113.493 430.891 113.055C430.379 112.619 429.743 112.313 429.05 112.168V111.233H443.611V112.168C442.919 112.286 442.28 112.577 441.77 113.005C441.404 113.446 441.226 113.986 441.268 114.531L441.212 141.114Z" fill="#1D1D1B"/>
<path d="M484.617 141.114H507.77C508.406 141.158 509.039 141.001 509.555 140.671C510.054 140.222 510.401 139.659 510.559 139.046H511.563V149.827H510.559C510.411 149.146 510.02 148.525 509.443 148.055C508.925 147.728 508.293 147.571 507.658 147.612H472.343V146.676C473.039 146.57 473.681 146.278 474.184 145.84C474.578 145.391 474.776 144.831 474.742 144.264V114.581C474.789 114.035 474.61 113.493 474.24 113.055C473.727 112.619 473.091 112.313 472.399 112.168V111.233H487.127V112.168C486.435 112.286 485.796 112.577 485.286 113.005C484.92 113.446 484.742 113.986 484.784 114.531L484.617 141.114Z" fill="#1D1D1B"/>
<path d="M528.021 114.581V144.363C527.979 144.908 528.157 145.448 528.523 145.889C529.032 146.329 529.669 146.636 530.364 146.775V147.71H515.747V146.775C516.443 146.668 517.086 146.376 517.588 145.938C517.983 145.489 518.181 144.93 518.146 144.363V114.581C518.193 114.035 518.015 113.493 517.644 113.055C517.132 112.619 516.496 112.313 515.803 112.168V111.233H530.42V112.168C529.727 112.284 529.087 112.574 528.579 113.005C528.18 113.452 527.981 114.013 528.021 114.581V114.581Z" fill="#1D1D1B"/>
<path d="M574.886 133.681H565.234C564.598 133.636 563.965 133.793 563.449 134.124C562.94 134.566 562.591 135.131 562.445 135.748H561.44V125.903H562.445C562.594 126.519 562.943 127.083 563.449 127.527C563.897 128.002 564.538 128.302 565.234 128.364H584.872V129.3C584.16 129.427 583.514 129.755 583.031 130.235C582.629 130.755 582.433 131.378 582.473 132.007V139.686C582.439 140.254 582.637 140.813 583.031 141.262C583.535 141.708 584.174 142.016 584.872 142.148V142.886C577.627 146.591 569.424 148.592 561.05 148.695C555.085 148.962 549.191 147.453 544.313 144.412C542.004 142.85 540.102 140.869 538.734 138.604C537.104 135.908 536.26 132.896 536.279 129.841C536.231 125.671 537.829 121.616 540.798 118.371C543.327 115.737 546.524 113.664 550.13 112.322C553.735 110.979 557.648 110.404 561.552 110.643C566.243 110.761 570.879 111.559 575.276 113.006C576.434 113.408 577.628 113.721 578.847 113.941C579.38 113.89 579.885 113.702 580.297 113.399L581.19 113.842L576.281 123.048L575.388 122.654C575.388 121.866 574.477 121.046 572.654 120.193C569.325 118.624 565.605 117.811 561.831 117.83C557.789 117.632 553.81 118.773 550.673 121.03C549.187 122.146 548.008 123.547 547.226 125.124C546.443 126.702 546.076 128.416 546.154 130.137C546.07 131.749 546.391 133.357 547.095 134.847C547.799 136.336 548.869 137.67 550.226 138.751C553.566 141.112 557.784 142.288 562.054 142.049C566.286 142.171 570.486 141.359 574.272 139.686L574.886 133.681Z" fill="#1D1D1B"/>
<path d="M622.083 138.604H603.059L600.939 142.591C600.502 143.29 600.236 144.061 600.157 144.856C600.157 145.906 600.939 146.562 602.501 146.825V147.76H587.549V146.825C588.303 146.758 589.019 146.502 589.613 146.086C590.282 145.447 590.828 144.715 591.231 143.92L606.35 116.944C606.848 116.124 607.134 115.216 607.187 114.286C607.187 113.4 606.518 112.711 605.123 112.218V111.283H621.023V112.218C620.462 112.346 619.962 112.631 619.6 113.03C619.238 113.43 619.032 113.922 619.015 114.434C619.09 115.373 619.415 116.284 619.963 117.092L635.529 143.133C636.06 144.124 636.735 145.051 637.537 145.889C638.169 146.367 638.944 146.675 639.769 146.776V147.711H623.031V146.776C624.631 146.546 625.43 145.889 625.43 144.806C625.348 143.914 625.022 143.053 624.482 142.296L622.083 138.604ZM619.126 133.681L612.376 121.965L605.904 133.287L619.126 133.681Z" fill="#1D1D1B"/>
<path d="M665.991 117.879V144.363C665.949 144.908 666.126 145.449 666.493 145.889C667.002 146.329 667.639 146.636 668.334 146.775V147.71H653.717V146.775C654.413 146.669 655.055 146.377 655.558 145.938C655.957 145.492 656.156 144.931 656.116 144.363V117.879H643.953C643.318 117.834 642.684 117.991 642.168 118.322C641.665 118.768 641.316 119.332 641.164 119.947H640.16V109.215H641.164C641.291 109.827 641.621 110.393 642.112 110.84C642.619 111.192 643.254 111.367 643.898 111.332H678.153C678.789 111.376 679.422 111.219 679.938 110.889C680.447 110.446 680.796 109.881 680.942 109.264H681.947V120.045H680.942C680.79 119.43 680.442 118.866 679.938 118.42C679.422 118.09 678.789 117.933 678.153 117.977L665.991 117.879Z" fill="#1D1D1B"/>
<path d="M709.34 110.495C715.234 110.304 721.029 111.864 725.798 114.926C728.354 116.651 730.403 118.893 731.772 121.463C733.141 124.033 733.79 126.856 733.665 129.694C733.756 132.457 733.088 135.198 731.718 137.684C730.349 140.17 728.317 142.326 725.798 143.969C720.972 146.85 715.278 148.389 709.452 148.389C703.625 148.389 697.932 146.85 693.105 143.969C690.636 142.211 688.644 139.988 687.276 137.463C685.908 134.937 685.198 132.173 685.198 129.374C685.198 126.574 685.908 123.811 687.276 121.285C688.644 118.759 690.636 116.536 693.105 114.778C697.854 111.847 703.547 110.345 709.34 110.495V110.495ZM709.34 117.387C707.414 117.317 705.493 117.601 703.697 118.219C701.901 118.838 700.27 119.778 698.907 120.981C696.446 123.335 695.098 126.431 695.14 129.634C695.181 132.838 696.609 135.905 699.13 138.21C701.955 140.553 705.686 141.858 709.563 141.858C713.44 141.858 717.171 140.553 719.996 138.21C721.224 137.118 722.189 135.818 722.832 134.388C723.474 132.958 723.781 131.428 723.734 129.891C723.812 128.298 723.52 126.708 722.877 125.219C722.235 123.729 721.254 122.371 719.996 121.227C718.617 119.985 716.966 119.004 715.144 118.344C713.321 117.684 711.366 117.358 709.396 117.387H709.34Z" fill="#1D1D1B"/>
<path d="M752.186 132.746V144.363C752.144 144.908 752.322 145.449 752.689 145.889C753.198 146.329 753.835 146.636 754.53 146.775V147.711H739.913V146.775C740.609 146.669 741.251 146.377 741.754 145.939C742.148 145.49 742.346 144.931 742.312 144.363V114.581C742.359 114.036 742.18 113.494 741.809 113.055C741.297 112.619 740.661 112.313 739.968 112.169V111.234H767.027C769.716 111.189 772.404 111.354 775.06 111.726C776.826 112.012 778.512 112.597 780.026 113.449C781.545 114.38 782.758 115.649 783.542 117.128C784.326 118.606 784.652 120.241 784.489 121.867C784.578 123.126 784.383 124.388 783.913 125.58C783.444 126.772 782.71 127.869 781.755 128.808C779.269 130.757 776.181 132.008 772.885 132.401L780.695 142.247C781.674 143.568 782.815 144.79 784.098 145.889C784.921 146.524 785.924 146.95 787 147.12V148.055H769.649V147.12C770.913 146.825 771.546 146.332 771.546 145.643C771.383 144.841 770.978 144.093 770.374 143.477L762.117 133.041L752.186 132.746ZM752.186 126.149H767.082C768.788 126.233 770.495 126.016 772.104 125.51C772.858 125.219 773.488 124.723 773.899 124.094C774.311 123.465 774.483 122.736 774.391 122.014C774.469 121.395 774.36 120.769 774.076 120.198C773.792 119.628 773.343 119.134 772.773 118.765C771.031 118.051 769.109 117.746 767.194 117.879H752.298L752.186 126.149Z" fill="#1D1D1B"/>
<path d="M109.761 175.13L105.856 183.646C105.693 183.973 105.598 184.323 105.577 184.68C105.577 185.221 105.912 185.516 106.637 185.615V186.009H99.998V185.615C100.259 185.591 100.501 185.481 100.676 185.308C100.852 185.136 100.948 184.912 100.946 184.68C100.92 184.324 100.826 183.974 100.667 183.646L95.9811 172.964C95.7638 172.391 95.4638 171.845 95.0885 171.339C94.8011 171.038 94.4086 170.831 93.9727 170.748V170.355H100.723V170.748C100.054 170.748 99.7191 171.241 99.7191 171.635C99.7658 171.993 99.8789 172.342 100.054 172.668L103.401 180.102L106.749 172.718C106.912 172.391 107.006 172.04 107.028 171.684C107.028 171.224 106.674 170.913 105.968 170.748V170.355H113.89V170.748C113.22 170.945 112.886 171.274 112.886 171.733C112.967 172.066 113.119 172.384 113.332 172.668L116.568 180.102L119.58 172.668C119.636 172.391 119.636 172.108 119.58 171.831C119.662 171.641 119.662 171.431 119.58 171.241C119.412 171.014 119.182 170.828 118.911 170.699V170.305H125.829V170.699C125.4 170.822 125.015 171.043 124.713 171.339C124.338 171.827 124.038 172.357 123.82 172.914L118.911 183.646C118.84 183.988 118.84 184.338 118.911 184.68C118.911 185.238 119.264 185.566 119.971 185.664V186.058H112.83V185.664C113.111 185.628 113.367 185.504 113.552 185.314C113.737 185.124 113.837 184.881 113.834 184.63C113.771 184.291 113.659 183.96 113.499 183.646L109.761 175.13Z" fill="#1D1D1B"/>
<path d="M141.896 182.12H133.695L132.747 183.843C132.558 184.146 132.444 184.482 132.412 184.827C132.412 185.287 132.747 185.566 133.416 185.664V186.058H126.944V185.664C127.274 185.63 127.585 185.51 127.837 185.32C128.117 185.042 128.343 184.726 128.506 184.384L135.034 172.668C135.255 172.32 135.389 171.934 135.424 171.536C135.424 171.142 135.146 170.847 134.532 170.65V170.256H141.227V170.65C140.984 170.702 140.767 170.82 140.607 170.989C140.446 171.157 140.351 171.366 140.334 171.585C140.364 171.984 140.498 172.371 140.725 172.717L147.475 183.99C147.713 184.417 148.013 184.814 148.368 185.172C148.636 185.379 148.964 185.516 149.316 185.566V185.959H142.064V185.566C142.733 185.566 143.068 185.287 143.068 184.729C143.039 184.345 142.905 183.973 142.677 183.646L141.896 182.12ZM140.613 179.905L137.712 174.982L134.922 179.905H140.613Z" fill="#1D1D1B"/>
<path d="M164.045 173.161V184.581C163.964 184.789 163.964 185.014 164.045 185.221C164.259 185.413 164.53 185.549 164.826 185.615V186.009H158.8V185.615C159.095 185.574 159.367 185.453 159.581 185.27C159.671 185.048 159.671 184.804 159.581 184.581V173.161H154.337C154.085 173.078 153.808 173.078 153.556 173.161C153.336 173.349 153.182 173.588 153.11 173.85H152.942V169.223H153.389C153.442 169.48 153.577 169.719 153.779 169.912C154.031 169.995 154.308 169.995 154.56 169.912H169.122C169.374 169.991 169.65 169.991 169.903 169.912C170.122 169.724 170.277 169.485 170.349 169.223H170.795V173.85H170.349C170.277 173.588 170.122 173.349 169.903 173.161C169.651 173.078 169.373 173.078 169.122 173.161H164.045Z" fill="#1D1D1B"/>
<path d="M193.391 180.397L196.069 183.843H195.678C195.477 183.797 195.266 183.797 195.064 183.843C194.621 183.955 194.205 184.139 193.837 184.385C192.627 185.04 191.335 185.568 189.987 185.96C188.735 186.268 187.438 186.417 186.138 186.403C183.613 186.503 181.121 185.863 179.053 184.581C178.018 183.87 177.178 182.961 176.598 181.923C175.935 180.78 175.591 179.515 175.594 178.231C175.544 176.46 176.173 174.725 177.379 173.308C178.423 172.182 179.759 171.295 181.274 170.721C182.788 170.147 184.438 169.903 186.082 170.01C187.382 169.999 188.678 170.148 189.932 170.453C191.283 170.837 192.576 171.366 193.781 172.029C194.154 172.256 194.569 172.423 195.009 172.521C195.209 172.569 195.421 172.569 195.622 172.521L196.013 172.767L193.335 176.213H193V175.819C193 175.36 192.293 174.851 190.88 174.293C189.607 173.758 188.217 173.472 186.807 173.456C185.099 173.396 183.421 173.866 182.065 174.785C181.393 175.245 180.849 175.835 180.475 176.509C180.101 177.183 179.907 177.924 179.907 178.674C179.907 179.425 180.101 180.165 180.475 180.839C180.849 181.513 181.393 182.103 182.065 182.563C183.425 183.475 185.1 183.944 186.807 183.892C188.457 183.78 190.049 183.307 191.438 182.514C192.591 181.989 193.167 181.529 193.167 181.136V180.742L193.391 180.397Z" fill="#1D1D1B"/>
<path d="M216.488 179.166H206.558V184.581C206.477 184.789 206.477 185.014 206.558 185.221C206.771 185.415 207.042 185.551 207.339 185.615V186.009H201.313V185.615C201.608 185.574 201.88 185.453 202.095 185.27C202.184 185.047 202.184 184.804 202.095 184.581V171.733C202.175 171.526 202.175 171.3 202.095 171.093C201.877 170.905 201.608 170.77 201.313 170.699V170.305H207.618V170.699C207.319 170.76 207.048 170.897 206.837 171.093C206.756 171.3 206.756 171.526 206.837 171.733V176.311H216.767V171.733C216.848 171.526 216.848 171.3 216.767 171.093C216.553 170.901 216.283 170.765 215.986 170.699V170.305H222.291V170.699C221.993 170.763 221.722 170.899 221.51 171.093C221.415 171.315 221.415 171.56 221.51 171.782V184.63C221.429 184.838 221.429 185.063 221.51 185.27C221.724 185.462 221.994 185.598 222.291 185.664V186.058H215.484V185.664C215.777 185.62 216.049 185.5 216.265 185.32C216.359 185.097 216.359 184.853 216.265 184.63L216.488 179.166Z" fill="#1D1D1B"/>
<path d="M256.658 171.733L254.538 175.376H254.147C254.156 175.239 254.131 175.102 254.073 174.974C254.015 174.846 253.926 174.732 253.812 174.638C253.027 174.078 252.114 173.674 251.135 173.456C249.975 173.155 248.772 173.006 247.564 173.013C246.634 173.005 245.709 173.138 244.83 173.407C243.677 173.768 243.101 174.293 243.101 174.982C243.093 175.206 243.171 175.425 243.323 175.604C243.475 175.783 243.692 175.911 243.938 175.967C244.973 176.23 246.041 176.379 247.118 176.41H249.628C251.376 176.455 253.091 176.842 254.649 177.542C255.377 177.933 255.978 178.483 256.395 179.138C256.812 179.793 257.031 180.532 257.031 181.283C257.031 182.035 256.812 182.774 256.395 183.429C255.978 184.084 255.377 184.634 254.649 185.025C252.736 185.992 250.547 186.454 248.345 186.354C245.67 186.358 243.025 185.855 240.59 184.877H240.144C240.016 184.882 239.892 184.916 239.785 184.976C239.677 185.037 239.589 185.121 239.53 185.221H239.14L240.981 181.382H241.371C241.367 181.504 241.395 181.626 241.453 181.737C241.511 181.848 241.598 181.945 241.706 182.022C242.517 182.555 243.45 182.924 244.44 183.105C245.696 183.4 246.99 183.549 248.289 183.548C249.311 183.561 250.329 183.428 251.302 183.154C252.418 182.826 252.976 182.317 252.976 181.628C252.967 181.341 252.845 181.067 252.631 180.851C252.417 180.635 252.125 180.492 251.804 180.447C250.91 180.236 249.994 180.104 249.07 180.053H246.56C245.529 180.006 244.503 179.891 243.491 179.708C242.842 179.584 242.221 179.368 241.65 179.068C240.982 178.694 240.442 178.167 240.088 177.542C239.71 176.887 239.519 176.16 239.53 175.425C239.497 174.629 239.715 173.839 240.157 173.145C240.6 172.45 241.252 171.876 242.041 171.487C243.737 170.634 245.667 170.208 247.62 170.257C248.766 170.245 249.91 170.36 251.023 170.601C252.327 170.909 253.597 171.321 254.817 171.832C255.096 171.959 255.398 172.043 255.709 172.078C255.964 172.05 256.201 171.946 256.379 171.783L256.658 171.733Z" fill="#1D1D1B"/>
<path d="M272.947 173.161V184.581C272.866 184.789 272.866 185.014 272.947 185.221C273.162 185.413 273.432 185.549 273.728 185.615V186.009H267.647V185.615C267.941 185.574 268.214 185.453 268.428 185.27C268.517 185.048 268.517 184.804 268.428 184.581V173.161H263.407C263.155 173.078 262.877 173.078 262.626 173.161C262.406 173.349 262.251 173.588 262.179 173.85H261.733V169.223H262.179C262.233 169.48 262.368 169.719 262.57 169.912C262.822 169.995 263.099 169.995 263.351 169.912H278.135C278.388 169.991 278.664 169.991 278.916 169.912C279.136 169.724 279.291 169.485 279.363 169.223H279.809V173.85H279.363C279.291 173.588 279.136 173.349 278.916 173.161C278.664 173.078 278.387 173.078 278.135 173.161H272.947Z" fill="#1D1D1B"/>
<path d="M290.132 179.56V184.483C290.052 184.69 290.052 184.915 290.132 185.122C290.345 185.316 290.616 185.453 290.914 185.516V185.91H284.888V185.516C285.182 185.475 285.455 185.355 285.669 185.172C285.759 184.949 285.759 184.705 285.669 184.483V171.733C285.75 171.525 285.75 171.3 285.669 171.093C285.451 170.905 285.182 170.769 284.888 170.699V170.305H296.548C297.699 170.215 298.857 170.215 300.007 170.305C300.761 170.429 301.481 170.68 302.127 171.044C302.771 171.445 303.285 171.987 303.618 172.618C303.951 173.248 304.091 173.944 304.024 174.637C304.063 175.181 303.979 175.726 303.778 176.242C303.577 176.757 303.263 177.232 302.853 177.64C301.767 178.472 300.428 179.002 299.003 179.166L302.351 183.301C302.765 183.873 303.252 184.401 303.801 184.876C304.147 185.152 304.571 185.339 305.028 185.418V185.812H297.441V185.418C297.999 185.418 298.278 185.073 298.278 184.778C298.211 184.431 298.037 184.108 297.776 183.843L294.205 179.363L290.132 179.56ZM290.132 176.705H296.548C297.289 176.735 298.028 176.634 298.724 176.409C299.046 176.287 299.315 176.078 299.496 175.813C299.676 175.549 299.757 175.24 299.728 174.933C299.761 174.671 299.716 174.407 299.599 174.166C299.481 173.924 299.296 173.714 299.059 173.554C298.294 173.236 297.447 173.101 296.604 173.16H290.132V176.705Z" fill="#1D1D1B"/>
<path d="M324.776 182.12H316.575L315.627 183.843C315.438 184.146 315.324 184.482 315.292 184.827C315.292 185.287 315.627 185.566 316.296 185.664V186.058H309.769V185.664C310.098 185.63 310.409 185.51 310.661 185.32C310.941 185.042 311.167 184.726 311.331 184.384L317.858 172.668C318.08 172.32 318.213 171.934 318.249 171.536C318.249 171.142 317.97 170.847 317.356 170.65V170.256H324.274V170.65C324.032 170.702 323.815 170.82 323.654 170.989C323.494 171.157 323.398 171.366 323.381 171.585C323.412 171.984 323.545 172.371 323.772 172.717L330.523 183.99C330.761 184.417 331.061 184.814 331.415 185.172C331.683 185.379 332.012 185.516 332.364 185.566V185.959H325.334V185.566C326.004 185.566 326.338 185.287 326.338 184.729C326.31 184.345 326.176 183.973 325.948 183.646L324.776 182.12ZM323.493 179.905L320.592 174.982L317.802 179.905H323.493Z" fill="#1D1D1B"/>
<path d="M342.352 179.56V184.483C342.271 184.69 342.271 184.915 342.352 185.123C342.565 185.317 342.835 185.453 343.133 185.517V185.91H337.107V185.517C337.402 185.475 337.674 185.355 337.888 185.172C337.978 184.949 337.978 184.706 337.888 184.483V171.733C337.969 171.526 337.969 171.3 337.888 171.093C337.67 170.905 337.402 170.77 337.107 170.699V170.306H348.712C350.499 170.203 352.286 170.508 353.9 171.192C354.574 171.559 355.116 172.089 355.462 172.718C355.841 173.408 356.032 174.166 356.02 174.933C356.08 175.601 355.947 176.271 355.635 176.882C355.323 177.493 354.842 178.025 354.235 178.428C352.551 179.3 350.603 179.696 348.656 179.56H342.352ZM342.352 176.705H348.433C349.229 176.756 350.028 176.655 350.776 176.41C351.064 176.25 351.302 176.029 351.467 175.766C351.631 175.504 351.718 175.208 351.718 174.908C351.718 174.608 351.631 174.313 351.467 174.05C351.302 173.788 351.064 173.566 350.776 173.407C350.028 173.162 349.229 173.061 348.433 173.111H342.352V176.705Z" fill="#1D1D1B"/>
<path d="M378.671 171.733L376.551 175.376H376.16C376.17 175.239 376.144 175.102 376.086 174.974C376.029 174.846 375.94 174.732 375.826 174.638C375.041 174.078 374.127 173.674 373.148 173.456C371.989 173.155 370.786 173.006 369.577 173.013C368.647 173.005 367.722 173.138 366.843 173.407C365.69 173.768 365.114 174.293 365.114 174.982C365.106 175.206 365.184 175.425 365.337 175.604C365.489 175.783 365.705 175.911 365.951 175.967C366.986 176.23 368.054 176.379 369.131 176.41H371.641C373.389 176.455 375.104 176.842 376.663 177.542C377.39 177.933 377.991 178.483 378.408 179.138C378.825 179.793 379.044 180.532 379.044 181.283C379.044 182.035 378.825 182.774 378.408 183.429C377.991 184.084 377.39 184.634 376.663 185.025C374.749 185.992 372.561 186.454 370.358 186.354C367.683 186.358 365.038 185.855 362.603 184.877H362.157C362.029 184.882 361.905 184.916 361.798 184.976C361.69 185.037 361.602 185.121 361.543 185.221H361.153L362.994 181.382H363.384C363.38 181.504 363.408 181.626 363.466 181.737C363.524 181.848 363.611 181.945 363.719 182.022C364.53 182.555 365.463 182.924 366.453 183.105C367.709 183.4 369.003 183.549 370.302 183.548C371.324 183.561 372.342 183.428 373.315 183.154C374.431 182.826 374.989 182.317 374.989 181.628C374.98 181.341 374.858 181.067 374.644 180.851C374.43 180.635 374.138 180.492 373.817 180.447C372.923 180.236 372.007 180.104 371.084 180.053H368.573C367.542 180.006 366.516 179.891 365.504 179.708C364.856 179.584 364.234 179.368 363.663 179.068C362.995 178.694 362.455 178.167 362.101 177.542C361.723 176.887 361.532 176.16 361.543 175.425C361.511 174.629 361.728 173.839 362.171 173.145C362.614 172.45 363.265 171.876 364.054 171.487C365.751 170.634 367.681 170.208 369.633 170.257C370.779 170.245 371.923 170.36 373.036 170.601C374.34 170.909 375.61 171.321 376.83 171.832C377.109 171.959 377.411 172.043 377.723 172.078C377.978 172.05 378.214 171.946 378.392 171.783L378.671 171.733Z" fill="#1D1D1B"/>
<path d="M418.952 172.668V177.985H418.45C418.45 177.542 418.45 177.296 417.948 177.296C417.561 177.343 417.196 177.479 416.888 177.69C416.434 177.953 416.022 178.267 415.66 178.625C415.064 179.184 414.625 179.858 414.377 180.594C414.894 181.066 415.474 181.479 416.106 181.825C416.558 182.076 417.079 182.212 417.613 182.218C417.825 182.219 418.03 182.148 418.186 182.02C418.341 181.892 418.436 181.716 418.45 181.529H418.952V185.96H416.162C415.367 185.858 414.606 185.606 413.931 185.221C413.086 184.797 412.315 184.266 411.643 183.646C410.643 184.533 409.451 185.235 408.138 185.708C406.825 186.182 405.418 186.418 404 186.403C402.012 186.432 400.062 185.916 398.421 184.926C397.603 184.464 396.935 183.821 396.485 183.061C396.035 182.301 395.818 181.451 395.855 180.594C395.922 179.323 396.421 178.098 397.286 177.08C398.152 176.062 399.344 175.297 400.708 174.884C400.086 174.452 399.575 173.908 399.21 173.288C398.844 172.669 398.633 171.988 398.588 171.29C398.581 170.543 398.806 169.808 399.239 169.166C399.671 168.524 400.296 167.998 401.043 167.647C402.441 166.911 404.046 166.536 405.674 166.564C407.492 166.526 409.28 166.972 410.806 167.844C411.475 168.213 412.022 168.73 412.394 169.343C412.765 169.956 412.949 170.644 412.926 171.339C412.955 172.082 412.742 172.817 412.313 173.456C411.705 174.195 410.949 174.829 410.081 175.327C411.205 175.98 412.096 176.902 412.647 177.985C413.424 176.708 414.422 175.545 415.604 174.539C416.552 173.707 417.695 173.069 418.952 172.668V172.668ZM404.391 176.41C403.282 176.383 402.198 176.697 401.322 177.296C400.922 177.558 400.597 177.9 400.375 178.293C400.152 178.686 400.037 179.12 400.039 179.56C400.032 180.015 400.145 180.464 400.367 180.874C400.59 181.284 400.917 181.643 401.322 181.923C402.24 182.565 403.387 182.897 404.558 182.858C405.79 182.909 407.007 182.597 408.017 181.972C408.442 181.756 408.798 181.449 409.051 181.079C409.305 180.709 409.448 180.288 409.467 179.856C409.445 179.402 409.291 178.962 409.021 178.576C408.743 178.12 408.364 177.718 407.905 177.394C406.866 176.794 405.629 176.516 404.391 176.607V176.41ZM405.506 169.223C404.754 169.214 404.017 169.402 403.386 169.764C403.063 169.975 402.801 170.249 402.62 170.565C402.439 170.882 402.345 171.231 402.345 171.585C402.345 171.94 402.439 172.289 402.62 172.606C402.801 172.922 403.063 173.196 403.386 173.407C404.047 173.879 404.88 174.124 405.73 174.096C406.481 174.102 407.218 173.914 407.85 173.555C408.215 173.362 408.517 173.088 408.723 172.759C408.928 172.431 409.031 172.059 409.021 171.684C409.034 171.348 408.961 171.014 408.806 170.707C408.652 170.4 408.42 170.128 408.128 169.912C407.356 169.463 406.419 169.287 405.506 169.419V169.223Z" fill="#1D1D1B"/>
<path d="M449.526 182.12H441.324L440.376 183.843C440.187 184.146 440.073 184.482 440.041 184.827C440.041 185.287 440.376 185.566 441.045 185.664V186.058H434.574V185.664C434.903 185.63 435.214 185.51 435.466 185.32C435.746 185.042 435.972 184.726 436.136 184.384L442.496 172.668C442.717 172.32 442.851 171.934 442.886 171.536C442.886 171.142 442.608 170.847 441.994 170.65V170.256H448.912V170.65C448.67 170.702 448.452 170.82 448.292 170.989C448.131 171.157 448.036 171.366 448.019 171.585C448.049 171.984 448.183 172.371 448.41 172.717L455.16 183.99C455.398 184.417 455.698 184.814 456.053 185.172C456.321 185.379 456.65 185.516 457.001 185.566V185.959H449.749V185.566C450.418 185.566 450.753 185.287 450.753 184.729C450.725 184.345 450.59 183.973 450.362 183.646L449.526 182.12ZM448.075 179.905L445.174 174.982L442.384 179.905H448.075Z" fill="#1D1D1B"/>
<path d="M479.26 180.397L481.938 183.843H481.547C481.346 183.797 481.135 183.797 480.934 183.843C480.49 183.955 480.074 184.139 479.706 184.385C478.497 185.04 477.205 185.568 475.857 185.96C474.604 186.268 473.308 186.418 472.007 186.403C469.438 186.511 466.903 185.852 464.81 184.532C463.775 183.821 462.936 182.912 462.356 181.874C461.693 180.731 461.349 179.466 461.351 178.182C461.302 176.411 461.931 174.676 463.137 173.259C464.181 172.133 465.516 171.246 467.031 170.672C468.546 170.098 470.196 169.854 471.84 169.961C473.14 169.95 474.436 170.099 475.689 170.404C477.041 170.787 478.334 171.317 479.539 171.98C479.912 172.207 480.327 172.374 480.766 172.472C480.967 172.52 481.179 172.52 481.38 172.472L481.771 172.718L479.093 176.164H478.758V175.77C478.758 175.311 478.051 174.802 476.638 174.244C475.365 173.709 473.975 173.423 472.565 173.407C470.857 173.347 469.179 173.817 467.823 174.736C467.151 175.196 466.607 175.786 466.233 176.46C465.859 177.134 465.665 177.875 465.665 178.625C465.665 179.376 465.859 180.116 466.233 180.79C466.607 181.464 467.151 182.054 467.823 182.514C469.183 183.425 470.858 183.895 472.565 183.843C474.139 183.835 475.688 183.498 477.084 182.859C478.237 182.334 478.814 181.874 478.814 181.48V181.086L479.26 180.397Z" fill="#1D1D1B"/>
<path d="M505.148 180.397L507.826 183.843H507.436C507.235 183.797 507.023 183.797 506.822 183.843C506.379 183.955 505.962 184.139 505.595 184.385C504.385 185.04 503.093 185.568 501.745 185.96C500.492 186.268 499.196 186.417 497.896 186.403C495.371 186.503 492.879 185.863 490.81 184.581C489.775 183.87 488.936 182.961 488.356 181.923C487.693 180.78 487.349 179.515 487.351 178.231C487.302 176.46 487.931 174.725 489.137 173.308C490.181 172.182 491.516 171.295 493.031 170.721C494.546 170.147 496.196 169.903 497.84 170.01C499.14 169.999 500.436 170.148 501.689 170.453C503.041 170.837 504.334 171.366 505.539 172.029C505.912 172.256 506.327 172.423 506.766 172.521C506.967 172.569 507.179 172.569 507.38 172.521L507.771 172.767L505.093 176.213H504.758V175.819C504.758 175.36 504.051 174.851 502.638 174.293C501.365 173.758 499.975 173.472 498.565 173.456C496.857 173.396 495.179 173.866 493.823 174.785C493.151 175.245 492.607 175.835 492.233 176.509C491.859 177.183 491.665 177.924 491.665 178.674C491.665 179.425 491.859 180.165 492.233 180.839C492.607 181.513 493.151 182.103 493.823 182.563C495.183 183.475 496.858 183.944 498.565 183.892C500.139 183.885 501.688 183.547 503.084 182.908C504.237 182.383 504.814 181.923 504.814 181.529V181.136L505.148 180.397Z" fill="#1D1D1B"/>
<path d="M518.982 179.363V183.203H530.14C530.375 183.274 530.631 183.274 530.866 183.203C531.088 183.017 531.243 182.777 531.312 182.514H531.758V187.141H531.312C531.262 186.882 531.126 186.643 530.921 186.452C530.669 186.373 530.393 186.373 530.14 186.452H513.403V186.058C513.698 186.017 513.97 185.897 514.184 185.714C514.274 185.491 514.274 185.247 514.184 185.024V171.733C514.265 171.526 514.265 171.301 514.184 171.093C513.966 170.905 513.698 170.77 513.403 170.699V170.306H529.471C529.724 170.384 529.999 170.384 530.252 170.306C530.472 170.118 530.626 169.879 530.698 169.616H531.145V174.244H530.698C530.633 173.979 530.477 173.739 530.252 173.555C529.999 173.476 529.724 173.476 529.471 173.555H518.648V177H525.342C525.595 177.079 525.871 177.079 526.124 177C526.339 176.81 526.493 176.572 526.57 176.311H527.016V180.84H526.57C526.498 180.578 526.343 180.339 526.124 180.151C525.871 180.072 525.595 180.072 525.342 180.151L518.982 179.363Z" fill="#1D1D1B"/>
<path d="M554.914 171.733L552.794 175.376H552.403C552.412 175.239 552.387 175.102 552.329 174.974C552.271 174.846 552.182 174.732 552.068 174.638C551.283 174.078 550.369 173.674 549.39 173.456C548.231 173.155 547.028 173.006 545.82 173.013C544.89 173.005 543.965 173.138 543.086 173.407C541.933 173.768 541.357 174.293 541.357 174.982C541.349 175.206 541.427 175.425 541.579 175.604C541.731 175.783 541.948 175.911 542.193 175.967C543.229 176.23 544.297 176.379 545.374 176.41H547.884C549.632 176.455 551.347 176.842 552.905 177.542C553.632 177.933 554.234 178.483 554.651 179.138C555.068 179.793 555.287 180.532 555.287 181.283C555.287 182.035 555.068 182.774 554.651 183.429C554.234 184.084 553.632 184.634 552.905 185.025C550.992 185.992 548.803 186.454 546.601 186.354C543.926 186.358 541.281 185.855 538.846 184.877H538.4C538.272 184.882 538.148 184.916 538.04 184.976C537.933 185.037 537.845 185.121 537.786 185.221H537.396L539.237 181.382H539.627C539.623 181.504 539.651 181.626 539.709 181.737C539.767 181.848 539.854 181.945 539.962 182.022C540.772 182.555 541.706 182.924 542.696 183.105C543.951 183.4 545.246 183.549 546.545 183.548C547.567 183.561 548.584 183.428 549.558 183.154C550.674 182.826 551.231 182.317 551.231 181.628C551.223 181.341 551.101 181.067 550.887 180.851C550.673 180.635 550.381 180.492 550.06 180.447C549.166 180.236 548.25 180.104 547.326 180.053H544.816C543.784 180.006 542.759 179.891 541.747 179.708C541.098 179.584 540.476 179.368 539.906 179.068C539.238 178.694 538.698 178.167 538.344 177.542C537.966 176.887 537.775 176.16 537.786 175.425C537.753 174.629 537.97 173.839 538.413 173.145C538.856 172.45 539.508 171.876 540.297 171.487C541.993 170.634 543.923 170.208 545.876 170.257C547.022 170.245 548.165 170.36 549.279 170.601C550.583 170.909 551.853 171.321 553.073 171.832C553.351 171.959 553.654 172.043 553.965 172.078C554.22 172.05 554.457 171.946 554.635 171.783L554.914 171.733Z" fill="#1D1D1B"/>
<path d="M578.232 171.733L576.112 175.376H575.721C575.731 175.239 575.705 175.102 575.647 174.974C575.59 174.846 575.501 174.732 575.387 174.638C574.602 174.078 573.688 173.674 572.709 173.456C571.55 173.155 570.347 173.006 569.138 173.013C568.208 173.005 567.283 173.138 566.404 173.407C565.251 173.768 564.675 174.293 564.675 174.982C564.667 175.206 564.745 175.425 564.898 175.604C565.05 175.783 565.266 175.911 565.512 175.967C566.547 176.23 567.615 176.379 568.692 176.41H571.202C572.95 176.455 574.665 176.842 576.224 177.542C576.951 177.933 577.552 178.483 577.969 179.138C578.386 179.793 578.605 180.532 578.605 181.283C578.605 182.035 578.386 182.774 577.969 183.429C577.552 184.084 576.951 184.634 576.224 185.025C574.31 185.992 572.122 186.454 569.919 186.354C567.244 186.358 564.599 185.855 562.164 184.877H561.718C561.59 184.882 561.466 184.916 561.359 184.976C561.251 185.037 561.163 185.121 561.104 185.221H560.714L562.555 181.382H562.945C562.941 181.504 562.969 181.626 563.027 181.737C563.085 181.848 563.172 181.945 563.28 182.022C564.091 182.555 565.024 182.924 566.014 183.105C567.27 183.4 568.564 183.549 569.863 183.548C570.885 183.561 571.903 183.428 572.876 183.154C573.992 182.826 574.55 182.317 574.55 181.628C574.541 181.341 574.419 181.067 574.205 180.851C573.991 180.635 573.699 180.492 573.378 180.447C572.484 180.236 571.568 180.104 570.645 180.053H568.134C567.103 180.006 566.077 179.891 565.066 179.708C564.417 179.584 563.795 179.368 563.224 179.068C562.556 178.694 562.016 178.167 561.662 177.542C561.284 176.887 561.093 176.16 561.104 175.425C561.072 174.629 561.289 173.839 561.732 173.145C562.175 172.45 562.826 171.876 563.615 171.487C565.312 170.634 567.242 170.208 569.194 170.257C570.34 170.245 571.484 170.36 572.597 170.601C573.901 170.909 575.171 171.321 576.391 171.832C576.67 171.959 576.972 172.043 577.284 172.078C577.539 172.05 577.775 171.946 577.953 171.783L578.232 171.733Z" fill="#1D1D1B"/>
<path d="M594.413 170.01C596.953 169.919 599.453 170.596 601.498 171.93C602.608 172.675 603.498 173.647 604.09 174.761C604.683 175.875 604.961 177.1 604.901 178.33C604.944 179.522 604.656 180.706 604.063 181.778C603.47 182.85 602.59 183.779 601.498 184.483C599.422 185.721 596.974 186.382 594.468 186.382C591.963 186.382 589.515 185.721 587.439 184.483C586.379 183.726 585.524 182.77 584.936 181.684C584.349 180.598 584.044 179.41 584.044 178.206C584.044 177.003 584.349 175.815 584.936 174.729C585.524 173.643 586.379 172.687 587.439 171.93C589.467 170.641 591.914 169.967 594.413 170.01V170.01ZM594.413 172.964C593.586 172.942 592.763 173.071 591.995 173.342C591.227 173.613 590.531 174.02 589.949 174.539C588.922 175.536 588.353 176.835 588.353 178.182C588.353 179.529 588.922 180.828 589.949 181.825C591.162 182.839 592.769 183.405 594.441 183.405C596.112 183.405 597.719 182.839 598.932 181.825C599.462 181.353 599.879 180.791 600.157 180.174C600.435 179.556 600.569 178.895 600.55 178.231C600.592 177.542 600.47 176.853 600.191 176.209C599.913 175.564 599.483 174.979 598.932 174.49C598.331 173.983 597.622 173.587 596.846 173.325C596.07 173.063 595.243 172.94 594.413 172.964V172.964Z" fill="#1D1D1B"/>
<path d="M616.115 179.56V184.483C616.034 184.69 616.034 184.915 616.115 185.122C616.328 185.316 616.598 185.453 616.896 185.516V185.91H610.591V185.516C610.886 185.475 611.158 185.355 611.372 185.172C611.462 184.949 611.462 184.705 611.372 184.483V171.733C611.453 171.525 611.453 171.3 611.372 171.093C611.154 170.905 610.885 170.769 610.591 170.699V170.305H622.251C623.402 170.215 624.56 170.215 625.71 170.305C626.464 170.429 627.184 170.68 627.831 171.044C628.474 171.445 628.988 171.987 629.321 172.618C629.654 173.248 629.794 173.944 629.727 174.637C629.766 175.181 629.682 175.726 629.481 176.242C629.28 176.757 628.966 177.232 628.556 177.64C627.471 178.472 626.132 179.002 624.706 179.166L628.054 183.301C628.468 183.873 628.955 184.401 629.504 184.876C629.85 185.152 630.274 185.339 630.732 185.418V185.812H623.256V185.418C623.814 185.418 624.093 185.073 624.093 184.778C624.025 184.431 623.852 184.108 623.59 183.843L620.02 179.363L616.115 179.56ZM616.115 176.705H622.53C623.271 176.735 624.01 176.634 624.706 176.409C625.028 176.287 625.297 176.078 625.478 175.813C625.658 175.549 625.739 175.24 625.71 174.933C625.743 174.671 625.698 174.407 625.581 174.166C625.464 173.924 625.278 173.714 625.041 173.554C624.276 173.236 623.429 173.101 622.586 173.16H616.17L616.115 176.705Z" fill="#1D1D1B"/>
<path d="M641.778 171.733V184.581C641.697 184.789 641.697 185.014 641.778 185.221C641.991 185.415 642.262 185.551 642.559 185.615V186.009H636.255V185.615C636.549 185.574 636.822 185.453 637.036 185.27C637.125 185.047 637.125 184.804 637.036 184.581V171.733C637.117 171.526 637.117 171.3 637.036 171.093C636.818 170.905 636.549 170.77 636.255 170.699V170.305H642.559V170.699C642.261 170.76 641.989 170.897 641.778 171.093C641.697 171.3 641.697 171.526 641.778 171.733Z" fill="#1D1D1B"/>
<path d="M654.499 179.363V183.203H665.657C665.892 183.274 666.147 183.274 666.382 183.203C666.604 183.017 666.76 182.777 666.829 182.514H667.275V187.141H666.829C666.778 186.882 666.642 186.643 666.438 186.452C666.185 186.373 665.91 186.373 665.657 186.452H648.92V186.058C649.214 186.017 649.487 185.897 649.701 185.714C649.79 185.491 649.79 185.247 649.701 185.024V171.733C649.782 171.526 649.782 171.301 649.701 171.093C649.483 170.905 649.214 170.77 648.92 170.699V170.306H664.988C665.24 170.384 665.516 170.384 665.769 170.306C665.988 170.118 666.143 169.879 666.215 169.616H666.661V174.244H666.215C666.149 173.979 665.993 173.739 665.769 173.555C665.516 173.476 665.24 173.476 664.988 173.555H654.499V177H661.194C661.446 177.079 661.722 177.079 661.975 177C662.19 176.81 662.344 176.572 662.421 176.311H662.867V180.84H662.421C662.349 180.578 662.194 180.339 661.975 180.151C661.722 180.072 661.446 180.072 661.194 180.151L654.499 179.363Z" fill="#1D1D1B"/>
<path d="M690.427 171.733L688.307 175.376H687.916C687.925 175.239 687.9 175.102 687.842 174.974C687.784 174.846 687.695 174.732 687.581 174.638C686.796 174.078 685.883 173.674 684.904 173.456C683.744 173.155 682.541 173.006 681.333 173.013C680.403 173.005 679.478 173.138 678.599 173.407C677.446 173.768 676.87 174.293 676.87 174.982C676.862 175.206 676.94 175.425 677.092 175.604C677.244 175.783 677.461 175.911 677.707 175.967C678.742 176.23 679.81 176.379 680.887 176.41H683.397C685.145 176.455 686.86 176.842 688.418 177.542C689.146 177.933 689.747 178.483 690.164 179.138C690.581 179.793 690.8 180.532 690.8 181.283C690.8 182.035 690.581 182.774 690.164 183.429C689.747 184.084 689.146 184.634 688.418 185.025C686.505 185.992 684.316 186.454 682.114 186.354C679.439 186.358 676.794 185.855 674.359 184.877H673.913C673.785 184.882 673.661 184.916 673.554 184.976C673.446 185.037 673.358 185.121 673.299 185.221H672.909L674.75 181.382H675.14C675.136 181.504 675.164 181.626 675.222 181.737C675.28 181.848 675.367 181.945 675.475 182.022C676.286 182.555 677.219 182.924 678.209 183.105C679.465 183.4 680.759 183.549 682.058 183.548C683.08 183.561 684.098 183.428 685.071 183.154C686.187 182.826 686.745 182.317 686.745 181.628C686.736 181.341 686.614 181.067 686.4 180.851C686.186 180.635 685.894 180.492 685.573 180.447C684.679 180.236 683.763 180.104 682.839 180.053H680.329C679.298 180.006 678.272 179.891 677.26 179.708C676.611 179.584 675.99 179.368 675.419 179.068C674.751 178.694 674.211 178.167 673.857 177.542C673.479 176.887 673.288 176.16 673.299 175.425C673.266 174.629 673.484 173.839 673.926 173.145C674.369 172.45 675.021 171.876 675.81 171.487C677.507 170.634 679.436 170.208 681.389 170.257C682.535 170.245 683.679 170.36 684.792 170.601C686.096 170.909 687.366 171.321 688.586 171.832C688.865 171.959 689.167 172.043 689.478 172.078C689.733 172.05 689.97 171.946 690.148 171.783L690.427 171.733Z" fill="#1D1D1B"/>
<path d="M483.668 27.4005L465.871 23.9054L465.313 22.97C463.241 20.2003 460.398 17.946 457.056 16.4229C453.627 14.8489 449.719 14.2799 445.898 14.7984L433.959 16.226C432.118 16.226 431.56 16.226 431.058 16.226C428.659 15.2907 426.26 14.6015 423.861 13.6662C421.462 12.7309 418.282 12.0417 415.883 11.5494L413.763 11.0572V7.75898C413.775 6.62813 413.296 5.5362 412.424 4.70692C411.482 3.90665 410.265 3.40461 408.965 3.27935C407.821 3.29612 406.711 3.62263 405.785 4.21466C404.967 4.93881 404.338 5.81261 403.944 6.77444L403.386 8.89119L400.987 8.39892C397.56 7.80996 394.094 7.41534 390.61 7.21748H389.55C386.872 6.72522 386.872 6.03604 387.151 4.41156C387.169 3.53737 386.887 2.67878 386.342 1.94866C385.797 1.21855 385.014 0.651071 384.097 0.320849C383.179 -0.00937404 382.17 -0.0868886 381.201 0.0984921C380.233 0.283873 379.351 0.723479 378.671 1.35951C377.716 2.1613 377.138 3.25095 377.053 4.41156C377.053 6.77444 375.714 6.77444 373.315 6.77444C368.603 6.88207 363.906 7.27684 359.256 7.95589H357.136L356.355 6.08527C356.057 5.20401 355.401 4.45046 354.514 3.96852C353.666 3.42206 352.66 3.09787 351.613 3.03322C350.312 3.15848 349.096 3.66052 348.154 4.46079C347.282 5.29007 346.803 6.382 346.815 7.51285V7.51285C346.815 9.13733 346.815 9.6296 344.695 10.3188H343.914C340.119 11.0048 336.389 11.9427 332.756 13.1247L325.837 15.4876L324.499 14.3061C323.635 13.5858 322.506 13.166 321.318 13.1247C320.635 12.8981 319.882 12.8981 319.198 13.1247C318.641 13.1247 317.859 13.617 317.581 14.06C317.071 14.3748 316.657 14.7954 316.374 15.2847C316.092 15.774 315.951 16.317 315.963 16.8659V18.2935L313.843 18.9827C313.186 19.2825 312.462 19.4506 311.723 19.4749H306.032C297.502 19.4685 289.163 21.6998 282.074 25.8852C274.985 30.0706 269.467 36.0211 266.22 42.9805C262.973 49.9399 262.144 57.594 263.839 64.9701C265.533 72.3461 269.675 79.111 275.738 84.405C283.791 91.4637 294.68 95.4273 306.032 95.4318H325.335C326.617 95.442 327.855 95.0193 328.794 94.2504C329.33 93.621 329.668 92.8783 329.775 92.0969C329.882 91.3155 329.753 90.5231 329.403 89.7995C329.052 89.0758 328.491 88.4465 327.777 87.9748C327.063 87.503 326.221 87.2056 325.335 87.1125H306.032C297.301 87.0703 288.927 84.0545 282.656 78.6947C279.54 75.9836 277.066 72.7532 275.378 69.1912C273.689 65.6292 272.82 61.8067 272.82 57.9457C272.82 54.0846 273.689 50.2621 275.378 46.7001C277.066 43.1381 279.54 39.9077 282.656 37.1966C288.927 31.8368 297.301 28.821 306.032 28.7788H313.731C317.201 28.0533 320.583 27.0311 323.829 25.7267C342.407 19.1796 379.619 6.03605 429.831 25.0376C431.449 25.5298 431.951 25.5298 439.65 24.3484L447.349 23.4131C449.556 23.2162 451.779 23.629 453.709 24.5945C455.491 25.6987 456.868 27.2387 457.67 29.0249C457.95 29.73 458.408 30.3697 459.009 30.8956C459.56 31.4288 460.315 31.7622 461.129 31.8309L481.604 36.0644C484.444 36.4844 487.008 37.8171 488.801 39.8056C490.693 41.8653 491.719 44.4398 491.702 47.0912C491.632 47.8825 491.258 48.629 490.642 49.2079C490.3 49.5271 489.884 49.7762 489.421 49.9378C488.958 50.0994 488.461 50.1695 487.964 50.1432H416.497C415.835 50.1297 415.178 50.2516 414.578 50.4992C413.978 50.7469 413.451 51.1136 413.038 51.5708C412.175 52.4051 411.697 53.4936 411.697 54.6229C411.697 55.7521 412.175 56.8406 413.038 57.6749C413.451 58.1321 413.978 58.4988 414.578 58.7465C415.178 58.9941 415.835 59.116 416.497 59.1025H420.458C423.543 59.0823 426.574 59.8148 429.217 61.2192C431.915 62.5844 434.195 64.5109 435.856 66.8311L438.255 70.3262H410.918C408.803 70.3878 406.697 70.0659 404.73 69.3802C402.762 68.6944 400.975 67.6596 399.48 66.3398C397.984 65.0199 396.811 63.4432 396.034 61.7072C395.257 59.9712 394.892 58.1128 394.962 56.2473C394.917 54.4214 395.295 52.6067 396.072 50.914C396.849 49.2212 398.009 47.686 399.481 46.402C402.429 43.757 406.435 42.2371 410.639 42.1685C411.383 42.2567 412.14 42.1713 412.835 41.9208C413.53 41.6703 414.139 41.2635 414.6 40.7409C415.299 40.1488 415.778 39.3839 415.975 38.5469C416.172 37.7099 416.077 36.8399 415.702 36.0514C415.328 35.2629 414.692 34.5929 413.878 34.1295C413.063 33.6662 412.109 33.4311 411.141 33.4553C405.759 33.3777 400.488 34.8151 396.094 37.5591C391.7 40.3031 388.411 44.2109 386.705 48.7156L385.924 50.1432H347.986C346.739 50.2591 345.584 50.7784 344.745 51.601C343.905 52.4237 343.441 53.4914 343.441 54.5982C343.441 55.7051 343.905 56.7728 344.745 57.5954C345.584 58.4181 346.739 58.9374 347.986 59.0532H351.724C354.904 58.9868 358.039 59.7211 360.762 61.17C363.461 62.5352 365.74 64.4617 367.401 66.7819L369.521 70.277H342.407C338.238 70.2949 334.229 68.8622 331.249 66.2896C328.252 63.6881 326.529 60.1535 326.451 56.4442C326.456 54.6023 326.883 52.7803 327.708 51.0882C328.533 49.3961 329.737 47.8689 331.249 46.5989C334.197 43.9539 338.203 42.434 342.407 42.3654C343.065 42.355 343.713 42.2225 344.309 41.9766C344.905 41.7306 345.436 41.3767 345.866 40.9378C346.729 40.1035 347.207 39.015 347.207 37.8858C347.207 36.7565 346.729 35.668 345.866 34.8337C344.9 34.1033 343.679 33.6865 342.407 33.6523C337.028 33.6113 331.759 35.0008 327.288 37.6396C322.884 40.4111 319.616 44.3659 317.971 48.9125L317.19 50.3401H309.212C305.06 50.3563 300.97 51.2332 297.273 52.8999C293.58 54.3378 290.371 56.593 287.956 59.4471C287.525 59.8996 287.208 60.4275 287.025 60.996C286.843 61.5645 286.799 62.1606 286.896 62.7453C286.963 63.3006 287.161 63.8374 287.479 64.3208C287.796 64.8042 288.224 65.2234 288.737 65.5512C289.833 66.2152 291.147 66.5438 292.475 66.4865C293.733 66.3286 294.873 65.7463 295.655 64.862C297.658 62.5996 300.32 60.8597 303.356 59.828C306.392 58.7963 309.689 58.5115 312.894 59.004H316.353L316.911 60.8747C318.131 66.0424 321.333 70.6809 325.977 74.0079C330.622 77.3349 336.425 79.1467 342.407 79.1378H374.542C375.246 79.1563 375.946 79.0381 376.592 78.7913C377.238 78.5446 377.814 78.1755 378.28 77.7102C379.152 76.8809 379.631 75.789 379.619 74.6581C379.624 72.5225 379.362 70.3929 378.838 68.3079C378.197 66.242 377.219 64.2688 375.937 62.4499L373.538 58.9548H384.696L385.254 60.8254C386.533 66.0735 389.776 70.7895 394.46 74.2151C399.195 77.565 405.131 79.3109 411.197 79.1378H443.611C444.273 79.1513 444.93 79.0294 445.53 78.7817C446.13 78.5341 446.657 78.1674 447.07 77.7102C447.808 76.8504 448.165 75.7828 448.074 74.7074C448.079 72.5717 447.817 70.4422 447.293 68.3571C446.651 66.2912 445.674 64.3181 444.392 62.4991L442.495 59.004H488.187C491.763 58.9849 495.188 57.7302 497.728 55.5089C499.024 54.4321 500.047 53.1253 500.73 51.6744C501.413 50.2235 501.739 48.6615 501.689 47.0912C501.685 42.5268 500.001 38.0871 496.891 34.4399C493.629 30.8192 489.027 28.327 483.892 27.4005H483.668Z" fill="#1D1D1B"/>
</svg>
