<svg width="17" height="17" viewBox="0 0 17 17" fill="none" xmlns="http://www.w3.org/2000/svg">
<path d="M16.8963 15.8946L13.8682 12.8666C12.7823 11.7807 12.7759 10.0533 13.1995 8.57727C13.368 7.99001 13.4584 7.37006 13.4584 6.7292C13.4584 3.01874 10.4396 0 6.72916 0C3.0187 0 0 3.01874 0 6.7292C0 10.4397 3.01874 13.4584 6.7292 13.4584C7.37008 13.4584 7.99004 13.368 8.57731 13.1995C10.0533 12.7759 11.7807 12.7823 12.8665 13.8682L15.8946 16.8963C16.033 17.0346 16.2572 17.0346 16.3955 16.8963L16.8963 16.3955C17.0346 16.2572 17.0346 16.0329 16.8963 15.8946ZM6.7292 12.0417C3.79971 12.0417 1.41668 9.65868 1.41668 6.7292C1.41668 3.79971 3.79971 1.41668 6.7292 1.41668C9.65868 1.41668 12.0417 3.79971 12.0417 6.7292C12.0417 9.65868 9.65868 12.0417 6.7292 12.0417Z" fill="black"/>
</svg>
